<?xml version="1.0" standalone="no"?>
<!DOCTYPE svg PUBLIC "-//W3C//DTD SVG 1.1//EN" "http://www.w3.org/Graphics/SVG/1.1/DTD/svg11.dtd" >
<!--
2013-9-30: Created.
-->
<svg>
<metadata>
Created by iconfont
</metadata>
<defs>

<font id="iconfont" horiz-adv-x="1024" >
  <font-face
    font-family="iconfont"
    font-weight="500"
    font-stretch="normal"
    units-per-em="1024"
    ascent="896"
    descent="-128"
  />
    <missing-glyph />
    
    <glyph glyph-name="fujian" unicode="&#58952;" d="M880 449.9l-324.2 320c-11.5 11.3-30 11.3-41.4 0-11.5-11.3-11.5-29.6 0-40.8l327.3-323.1c80.7-82.9 79.7-214.7-3.1-296.4-83.8-82.7-219.7-82.7-303.5 0l-0.1-0.1-372.5 367.6c-53.3 52.6-53.3 138 0 190.6s139.8 52.6 193.1 0l386.4-381c22.9-22.6 22.9-59.2 0-81.8-22.9-22.6-59.9-22.6-82.8-0.1-0.4 0.4-0.7 0.8-1.1 1.1l-278.3 274.7c-11.4 11.3-30 11.3-41.4 0s-11.4-29.6 0-40.9l279.5-275.9c45.7-45 119.8-45 165.5 0.1s45.7 118.3 0 163.4v-0.1c-0.3 0.4-0.6 0.7-1 1l-385.3 380.4c-0.1 0.2-0.3 0.3-0.5 0.5l-6.4 6.3c-1.5 1.5-3.1 2.7-4.8 3.8-76.7 64.4-191.9 60.9-264.3-10.6s-76-185.1-10.8-260.8c1.1-1.7 2.4-3.3 3.9-4.7l6.9-6.8 372.5-367.7c0.6-0.5 1.1-1 1.6-1.5 106.8-103.7 278.6-103.1 384.7 1.6 106.8 105.2 106.8 275.9 0.1 381.2z"  horiz-adv-x="1024" />

    
    <glyph glyph-name="jiahao1" unicode="&#58908;" d="M904 328h-784c-30.9 0-56 25.1-56 56s25.1 56 56 56h784c31 0 56-25.1 56-56s-25-56-56-56zM456.1-8v784c0 30.9 25.1 56 56 56s56-25.1 56-56v-784c0-30.9-25.1-56-56-56-31 0-56 25-56 56z"  horiz-adv-x="1024" />

    
    <glyph glyph-name="jian8" unicode="&#59114;" d="M904 328h-784c-30.9 0-56 25.1-56 56s25.1 56 56 56h784c31 0 56-25.1 56-56s-25-56-56-56z"  horiz-adv-x="1024" />

    
    <glyph glyph-name="jinrongtubiao_jindu" unicode="&#58961;" d="M806 6.64h-24c-3.008 158.224-84 257.12-176.992 339.056-27.008 25.424-18 56.512 0 70.64 92.992 84.768 174 180.832 176.992 341.888h24c21.008 0 39.008 16.96 39.008 36.736s-18 36.736-39.008 36.736h-588c-24 2.816-42-14.128-42-33.904s18-36.736 39.008-36.736h24c2.992-161.056 80.992-257.12 176.992-341.888 20.992-19.776 20.992-50.864 0-70.64-93.008-81.936-174-180.832-176.992-339.056h-21.008c-20.992 0-39.008-16.96-39.008-36.736s18-36.736 39.008-36.736h591.008c20.992 0 38.992 16.96 38.992 36.736 0 16.944-18 33.904-42 33.904zM743.008 758.224c0-50.864-12-96.064-27.008-135.632-68.992-19.776-342-19.776-411.008 0-18 39.552-27.008 84.768-27.008 135.632h465.024zM508.992 65.968c-39.008 0-128.992-59.328-192-59.328h-39.008c2.992 132.8 66 217.568 147.008 291.024 20.992 19.776 54 62.16 87.008 62.16s66-45.216 87.008-64.992c80.992-73.456 144-158.224 146.992-291.024h-44.992c-63.008 2.832-150.016 62.16-192.016 62.16z"  horiz-adv-x="1024" />

    
    <glyph glyph-name="i" unicode="&#58923;" d="M606.6 832c64.2 0 83.3-37.3 83.3-79.9 0-53.3-42.7-102.5-115.4-102.5-60.9 0-89.9 30.7-88.2 81.3C486.3 773.4 522 832 606.6 832zM441.8-64c-43.8 0-76.1 135.6-45.3 252.8l50.4 142.9c8.7 33.3 10.2 46.6 0 46.6-13.2 0-70.2-23-103.9-45.7l-22 83.9c106.8 89.2 229.7 163.9 282.3 163.9 43.9 0 51.2-74.3 29.3-154.2l-73.3-161.5c-10.3-38.6-5.9-116.4 4.3-116.4 13.2 0 72 18.3 114.4 51.6l24.9-73.2C599.1 22.9 485.7-64 441.8-64z"  horiz-adv-x="1024" />

    
    <glyph glyph-name="bianji" unicode="&#58924;" d="M940.4 536l-76.8-76.8-276.5 276.9 76.8 76.8A65.25 65.25 0 0 0 710 832c17.3 0 33.9-6.9 46.1-19.1l184.3-184.5c25.5-25.5 25.5-66.9 0-92.4zM448.8 43.9a65.25 65.25 0 0 0-46.1-19.1c-17.3 0-33.9 6.9-46.1 19.1l-76.8 76.8L541 382.1c8 8.6 7.7 21.9-0.5 30.2s-21.6 8.5-30.2 0.6L249 151.5l-76.8 76.8c-25.5 25.5-25.5 66.8 0 92.3l353.4 353.7 276.5-276.8-353.3-353.6zM110.2-61.2c-23.6 0.5-42.6 19.5-43.1 43.1l-2.7 169.7L279.8-64l-169.6 2.8z"  horiz-adv-x="1024" />

    
    <glyph glyph-name="cha1" unicode="&#58976;" d="M936.1-39.7c-31.8-31.8-83.6-31.8-115.6 0L88.7 691.8c-31.8 31.9-31.9 83.6 0 115.5 31.8 31.9 83.6 31.9 115.7 0l731.7-731.4c31.8-32 32-83.7 0-115.6z m-0.8 731.9L203.4-39.2c-31.9-32-83.6-32-115.6 0-31.8 31.8-31.8 83.4 0.1 115.5L819.7 807.6c31.9 31.9 83.7 31.9 115.5 0.1 32-31.9 31.8-83.6 0.1-115.5zM512.1 500.2L628 384.4 512.1 268.6l-116 115.8 116 115.8z"  horiz-adv-x="1024" />

    
    <glyph glyph-name="gou" unicode="&#58977;" d="M152.9 421.2l209.5-166.7 521.7 480.2s35 31.9 65.6 7c9.1-7.5 19.6-28.8-4.1-62.1l-544.7-637.6s-41.8-57.1-91.4 0.6l-235 317.1s-27.9 42.9 7.1 68.7c11.7 8.7 38.5 22.2 71.3-7.2M152.9 421.2z"  horiz-adv-x="1024" />

    
    <glyph glyph-name="gantanhao" unicode="&#58978;" d="M623.6 696.7c1.8 7.8 2.8 16 2.8 24.4C626.4 782.4 575.2 832 512 832s-114.4-49.7-114.4-110.9c0-8.4 1-16.5 2.8-24.4l48.8-423.8h0.5c1.2-32.4 28.6-58.3 62.4-58.3 33.7 0 61.1 25.9 62.3 58.3h0.5l48.7 423.8M512.6 133.2c54.4 0 98.6-44.1 98.6-98.6 0-54.5-44.1-98.6-98.6-98.6S414-19.9 414 34.6c0 54.4 44.1 98.6 98.6 98.6z"  horiz-adv-x="1024" />

    
    <glyph glyph-name="huishouxiang" unicode="&#58982;" d="M928.1 672h-159.9v64.1c-0.1 52.9-42.8 95.9-95.4 95.9h-320.7c-52.9 0-96-43.1-96-95.9v-64h-160c-17.7 0-32-14.4-32-32 0-17.7 14.3-32 32-32h832c17.6 0 32 14.3 32 32-0.1 17.6-14.4 31.9-32 31.9zM800.1 544h-576c-8.5 0-16.6-3.2-22.7-9.1-5.9-6-9.3-13.9-9.3-22.5v-480.4c0-53 43.1-96 96-96h448c52.9 0 95.9 43.1 95.9 96v480c0.1 17.7-14.2 32-31.9 32zM448 96c0-17.7-14.2-31.9-31.9-31.9-17.8 0-32 14.2-32 31.9v352.1c0 17.7 14.3 31.9 32 31.9s31.9-14.3 31.9-31.9v-352.1zM640 96c0-17.7-14.3-31.9-31.9-31.9-17.7 0-32 14.2-32 31.9v352.1c0 17.7 14.3 31.9 32 31.9 17.6 0 31.9-14.3 31.9-31.9v-352.1z"  horiz-adv-x="1024" />

    
    <glyph glyph-name="jubao" unicode="&#58941;" d="M945.1 126.2c-95.4 144-277.4 439-372.4 582.3-20.7 26.2-69.4 41.2-99.3 0-94.8-143-300.3-453.1-396-597.6-22.6-31.7-22.2-74.7 47.7-77h796.2c46.6 2.6 46.6 58.4 23.8 92.3z m-422.4 0c-25.2 0-45.6 20.7-45.6 46.2 0 25.5 20.4 46.2 45.6 46.2 25.2 0 45.7-20.7 45.7-46.2 0-25.5-20.5-46.2-45.7-46.2zM557 287.9c0.4-11.3-10.6-23.1-22.8-23.1h-22.8c-12.3 0-22.4 11.8-22.8 23.1l-22.8 219.4c0 19.1 15.3 34.6 34.2 34.6h45.7c18.9 0 34.2-15.5 34.2-34.6L557 287.9z"  horiz-adv-x="1024" />

    
    <glyph glyph-name="ren" unicode="&#58946;" d="M511.8 300c-147 0-266.1 112.8-266.1 251.9 0 139 119.1 251.9 266.1 251.9 147 0 266.1-112.8 266.1-251.9 0-139-119.1-251.9-266.1-251.9zM232.1 216.1C131.6 216.1 64 143.4 64 42.8l0.2-78.6h895.6l0.2 78.6c0 100.5-67.6 173.3-168.1 173.3H232.1z"  horiz-adv-x="1024" />

    
    <glyph glyph-name="shezhi" unicode="&#58950;" d="M957.5 262.3c1.3-7.7 1-17-0.9-27.9-1.9-10.9-5.1-22-9.6-33.2-4.5-11.2-9.9-21.3-16.3-30.3s-13.5-15.4-21.1-19.3c-7.7-3.8-14.4-5.8-20.2-5.8-5.8 0-12.2 1.3-19.2 3.8-6.4 1.9-14.4 3.7-24 5.3-9.6 1.6-19.3 1.9-29.3 1-9.9-1-19.9-3.1-29.8-6.3-9.9-3.2-18.4-8.7-25.5-16.4-15.3-16-24.3-34.3-26.9-54.9-2.6-20.5 0.3-40.1 8.6-58.7 6.4-12.8 5.5-25.7-2.9-38.5-3.8-5.1-9.9-10.4-18.3-15.9-8.3-5.5-17.4-10.4-27.4-14.9-9.9-4.5-20.3-8-31.2-10.6-10.9-2.6-20.5-3.8-28.8-3.8-5.8 0-11.2 2.2-16.3 6.7-5.1 4.5-8.7 9.3-10.6 14.4h-1c-7 19.9-19 37.1-36 51.5-17 14.4-36.7 21.7-59.1 21.7-21.8 0-41.5-7.2-59.1-21.7-17.6-14.4-30-31.3-37-50.5-3.2-7.7-8-13.3-14.4-16.8s-13.5-5.3-21.1-5.3c-9 0-19 1.6-30.2 4.8-11.2 3.2-22.4 7.2-33.6 12-11.2 4.8-21.3 10.4-30.2 16.8-9 6.4-15.7 12.8-20.2 19.2-3.2 4.5-5 9.8-5.3 15.9-0.3 6.1 2.1 14.6 7.2 25.5 7.1 14.7 9.8 31.6 8.2 50.5-1.6 18.9-9.8 36.4-24.5 52.5-9 9.6-19.9 15.9-32.7 18.8-12.8 2.9-25 4-36.5 3.4-13.4-0.6-27.2-3.2-41.3-7.7-9-2.6-17.9-1.9-26.9 1.9-7 2.6-13.6 8.5-19.7 17.8s-11.5 19.6-16.3 30.8c-4.8 11.2-8.5 22.8-11.1 34.6-2.5 11.9-3.2 21.7-1.9 29.4 1.9 14.1 8.3 23.1 19.2 27 19.2 7.7 36.5 20.4 51.9 38 15.4 17.6 23.1 37.4 23.1 59.2 0 22.5-7.7 42-23.1 58.7-15.4 16.7-32.7 28.9-51.9 36.6-5.8 1.9-10.6 6.6-14.4 14-3.9 7.4-5.8 14.9-5.8 22.6 0 8.3 1.3 17.6 3.8 27.9 2.6 10.3 5.9 20.2 10.1 29.8 4.1 9.6 9 18.4 14.4 26.5 5.5 8 11.4 13.9 17.8 17.8 5.1 3.2 10.1 4.5 14.9 3.9 4.8-0.6 10.1-1.9 15.8-3.9 19.2-7.7 39.2-10.1 60-7.2 20.8 2.9 39.2 12 55.2 27.4 7.7 7.7 13.3 17.2 16.8 28.4s5.8 22.3 6.7 33.2c1 10.9 1 20.8 0 29.8s-1.7 15.4-2.4 19.3c-1.3 3.8-2.4 8.3-3.4 13.5-1 5.1-0.5 9.6 1.5 13.5 3.8 9 10.7 16.8 20.7 23.6 9.9 6.7 20.7 12.3 32.1 16.8 11.6 4.5 22.7 7.9 33.7 10.1 10.9 2.2 19.5 3.4 25.9 3.4 8.3 0 14.9-2.7 19.7-8.2 4.8-5.4 8.2-11.1 10.1-16.8 7-17.3 18.6-32.6 34.6-45.7 16-13.1 34.9-19.7 56.7-19.7 22.4 0 42.2 6.3 59.5 18.8 17.3 12.5 29.5 28.4 36.5 47.6 2.5 5.1 6.6 10.4 12 15.9s11 8.2 16.8 8.2c9 0 18.7-1.3 29.3-3.8 10.6-2.6 21-6.1 31.2-10.6s19.7-10.3 28.4-17.3c8.6-7.1 15.5-14.8 20.6-23.1 3.2-5.1 4.1-10.7 2.9-16.8-1.3-6.1-2.6-10.4-3.9-13-8.3-18.6-10.9-38.2-7.7-58.7s12.5-38.5 27.8-53.9c15.4-15.4 34.3-23.9 56.7-25.5 22.4-1.6 43.2 2.1 62.4 11.1 5.1 3.2 11.4 4.5 18.8 3.9 7.4-0.6 13.6-3.5 18.7-8.7 9.6-9 18.1-22.6 25.5-40.9 7.4-18.3 12.3-36.7 14.9-55.3 1.3-10.9-0.5-19.4-5.3-25.5-4.8-6.1-9.8-10.1-14.9-12-19.8-7.1-36.8-19.4-50.9-37.1-14.1-17.6-21.1-37.7-21.1-60.2 0-21.8 5.9-40.9 17.8-57.3 11.8-16.4 27.4-28.1 46.6-35.1 4.5-2.6 8.3-5.1 11.5-7.7 7.2-6 12-13.4 14.6-22.3z m-446.7-86.7c28.8 0 56 5.5 81.6 16.4 25.6 10.9 47.9 26 66.8 45.2 18.9 19.3 33.8 41.5 44.7 66.9 10.9 25.3 16.3 52.5 16.3 81.3s-5.4 56-16.3 81.3c-10.9 25.3-25.8 47.5-44.7 66.4-18.9 18.9-41.1 33.8-66.8 44.8-25.6 10.9-52.8 16.4-81.6 16.4-28.8 0-55.9-5.4-81.2-16.4-25.3-10.9-47.4-25.8-66.3-44.8-18.9-18.9-33.8-41.1-44.7-66.4-10.9-25.3-16.3-52.5-16.3-81.3s5.5-56 16.3-81.3c10.9-25.3 25.8-47.6 44.7-66.9 18.9-19.2 41-34.3 66.3-45.2 25.4-10.9 52.4-16.4 81.2-16.4z"  horiz-adv-x="1024" />

    
    <glyph glyph-name="sousuo" unicode="&#58954;" d="M934.3-38.2c-34.2-34.2-89.7-34.2-124 0l-122 122c-63.1-40.4-137.9-64.1-218.3-64.1-224.2 0-406 181.8-406 406.1s181.8 406 406.1 406c224.2 0 406-181.8 406-406.1 0-80.3-23.6-154.9-63.8-217.9l122-122.1c34.3-34.1 34.3-89.6 0-123.9zM470.1 738.1c-172.5 0-312.4-139.8-312.4-312.4 0-172.5 139.8-312.3 312.4-312.3 172.5 0 312.3 139.8 312.3 312.3 0 172.6-139.8 312.4-312.3 312.4z"  horiz-adv-x="1024" />

    
    <glyph glyph-name="wenhao" unicode="&#58960;" d="M507.8 133.9c-56 0-101.2-44.4-101.2-99S452-64 507.8-64c55.9 0 101.1 44.3 101.1 98.9 0 54.6-45.4 99-101.1 99zM728.2 760.7C674.4 808.2 602 832 510.9 832c-86.5 0-156.4-23.4-209.7-70.3-53.2-46.9-84.4-111.5-86.1-171.1-1.8-59.6 140.2-47.2 145.5-17.8 5.5 31.1 28.8 81.5 56 104.3 27.1 22.8 60.8 34.3 101.2 34.3 41.8 0 75.2-11 99.8-32.9 24.6-22 37-48.3 37-78.9 0-22-7.1-42.3-21-60.7-9-11.6-36.7-36.2-82.9-73.8-46.1-37.4-77.1-71.3-92.5-101.3-15.5-30-23.2-68.3-23.2-114.8 0-4.6 0.3-17.2 0.6-37.8h144.1c-0.8 43.6 3 73.8 11.1 90.6 8 17 28.8 39.3 62.2 67 64.6 53.7 106.7 95.9 126.6 127.1 19.6 31.1 29.6 64.2 29.4 99.1-0.1 63-26.9 118.2-80.8 165.7z"  horiz-adv-x="1024" />

    
    <glyph glyph-name="zuojiantou" unicode="&#58997;" d="M277.1 439.9C409.8 567.4 530.2 688.3 662.9 815.5c54.6 52.5 136.1-32.8 81.2-85.4-118.1-113.3-226-232.7-344-346.1 118.6-117.3 227.1-228.5 345.8-345.8 54-53.4-27.4-138.6-81.2-85.3-133.4 131.7-254.3 243.4-387.6 375.2-22 21.8-22.6 90.2 0 111.8z"  horiz-adv-x="1024" />

    
    <glyph glyph-name="youjiantou" unicode="&#58998;" d="M746.9 439.9c22.6-21.6 22-90 0-111.9-133.3-131.7-254.2-243.4-387.5-375.1-53.8-53.3-135.3 32-81.2 85.3 118.6 117.3 227 228.5 345.7 345.8C505.9 497.4 398 616.8 280 730.2c-54.9 52.6 26.6 137.9 81.2 85.4 132.6-127.3 253-248.2 385.7-375.7z"  horiz-adv-x="1024" />

    
    <glyph glyph-name="lianjie" unicode="&#58970;" d="M357.7 57.6c-23.7-23.6-62.2-23.6-86 0l-86.1 86.1c-23.7 23.8-23.7 62.3 0 86.1L297 341l104.5 104.5C354.8 473 294 467.1 253.9 427.1L99.6 272.7c-47.5-47.5-47.5-124.5 0-172l129-129c47.5-47.6 124.5-47.6 172.1 0L555 125.9c40 40 45.9 100.9 18.5 147.6L357.7 57.6z m566.7 609.8l-129 129.1C747.9 844 670.8 844 623.3 796.5L469 642.1c-40-40-45.9-100.7-18.5-147.5l215.8 215.7c23.7 23.8 62.2 23.8 86 0l86-86.1c23.8-23.8 23.8-62.3 0-86.1L622.6 322.4c46.6-27.4 107.5-21.5 147.5 18.6l154.3 154.2c47.5 47.6 47.5 124.5 0 172.2zM347 240.6l21.5-21.6c17.8-17.8 46.7-17.8 64.5 0l244 244c17.9 17.8 17.9 46.7 0 64.5l-21.5 21.6c-17.8 17.8-46.7 17.8-64.5 0l-244-244c-17.9-17.8-17.9-46.7 0-64.5z"  horiz-adv-x="1024" />

    
    <glyph glyph-name="quanxian-kaifang" unicode="&#58973;" d="M854.6-64H169.4c-24.7 0-44.6 19.8-44.6 44.3l-0.2 367.4c0 24.4 23.8 48.4 48.4 48.4h72.6l-1.7 170.3C243.9 713.1 363.9 832 512 832c148 0 268.1-118.9 268.1-265.6 0-24.4-20-44.3-44.6-44.3-24.7 0-44.7 19.8-44.7 44.3 0 97.8-80 177.1-178.8 177.1-98.7 0-193.7-80-193.7-177.8v-169.5H851.1c24.7 0 48.4-24 48.4-48.4l-0.3-367.4c0.1-24.6-19.9-44.4-44.6-44.4zM512 319.7c-49.4 0-89.4-39.6-89.4-88.5 0-32.7 18.2-60.9 44.8-76.3v-86.1c0-24.4 20-44.3 44.6-44.3 24.7 0 44.7 19.8 44.7 44.3v86.1c26.6 15.3 44.8 43.6 44.8 76.3-0.1 48.8-40.1 88.5-89.5 88.5z"  horiz-adv-x="1024" />

    
    <glyph glyph-name="quanxian-chengyuan" unicode="&#58974;" d="M720.4 309c23.5 0 42.5 19.1 42.5 42.6 0 13.6-6.3 25.6-16.2 33.4l0.2 0.3c-32.7 25.3-43 20-82.3 35 50 42.9 81.8 106.5 81.8 177.6C746.6 727.2 641.9 832 512.7 832S278.8 727.2 278.8 597.9c0-71.1 31.8-134.7 81.8-177.6C201 359 87.5 204.6 87.4 23.3v-0.1c0.1-23.4 19.1-42.5 42.5-42.5 23.5 0 42.5 19 42.5 42.5 0 187.7 152.7 340.5 340.2 340.5 76.9 0 121.6 0.2 178.6-43 7.7-7.2 18-11.7 29.2-11.7zM512.7 449c-82.1 0-148.9 66.8-148.9 148.9s66.8 149 148.9 149c82.1 0 148.9-66.8 148.9-149S594.8 449 512.7 449zM907.1-64H652.3c-14.4 0-29.4 10.9-29.4 24.4l0.1 158.5c0 13.5 16.9 30.5 31.4 30.5h250.9c14.4 0 31.3-17 31.3-30.5l0.1-158.5c-0.1-13.5-15.2-24.4-29.6-24.4M779.7 106.7c-21.6 0-39.2-16.4-39.2-36.6 0-13.5 7.9-25.2 19.6-31.5v-34.8c0-10.5 8.8-19 19.6-19s19.6 8.5 19.6 19v34.8c11.7 6.3 19.6 18 19.6 31.5 0 20.3-17.5 36.6-39.2 36.6m0 158.5c-43.3 0-94-44.9-94-85.4h-31.4c0 60.6 60.4 121.9 125.4 121.9s125.4-61.3 125.4-121.9h-31.4c0.1 40.5-50.6 85.4-94 85.4m0 0"  horiz-adv-x="1024" />

    
    <glyph glyph-name="quanxian-shouxian" unicode="&#58975;" d="M826.8-64H197.2c-35.7 0-72.8 26.8-72.8 59.8v448c0 33 37.2 49.2 72.8 49.2h629.7c35.7 0 72.9-16.3 72.9-49.2v-448c-0.1-33-37.3-59.8-73-59.8M512 354.2c-53.5 0-96.9-40.1-96.9-89.6 0-33.1 19.6-61.7 48.5-77.2v-85.2c0-25.8 21.7-46.7 48.4-46.7 26.8 0 48.5 20.9 48.5 46.7v85.2c28.8 15.5 48.5 44.1 48.5 77.2-0.1 49.5-43.5 89.6-97 89.6m0 388.2c-107 0-193.9-80.2-193.9-179.2h-96.9C221.2 711.7 351.4 832 512 832c160.6 0 290.8-120.3 290.8-268.8h-96.9c-0.1 99-86.9 179.2-193.9 179.2m0 0"  horiz-adv-x="1024" />

    
    <glyph glyph-name="shangjiantou" unicode="&#58983;" d="M456.1 618.9c21.6 22.6 90 22 111.9 0 131.8-133.2 243.5-254.2 375.2-387.5 53.3-53.8-32-135.3-85.3-81.2-117.4 118.6-228.6 227-345.9 345.7C398.6 377.9 279.2 270 165.8 152c-52.6-54.9-137.9 26.6-85.4 81.2 127.3 132.6 248.2 253 375.7 385.7z"  horiz-adv-x="1024" />

    
    <glyph glyph-name="xiajiantou" unicode="&#58979;" d="M567.9 149.1c-21.6-22.6-90-22-111.9 0C324.3 282.4 212.6 403.3 80.9 536.6c-53.3 53.8 32 135.3 85.3 81.2 117.3-118.6 228.5-227 345.8-345.7C625.4 390.1 744.8 498 858.2 616c52.6 54.9 137.9-26.6 85.4-81.2-127.3-132.6-248.2-253-375.7-385.7z"  horiz-adv-x="1024" />

    
    <glyph glyph-name="xiajiantou1" unicode="&#58980;" d="M715 425.9V832H309v-406.1H65.3L512-64l446.7 489.9z"  horiz-adv-x="1024" />

    
    <glyph glyph-name="gengduo" unicode="&#58981;" d="M163.6 483.6c55 0 99.6-44.6 99.6-99.6 0-55-44.6-99.6-99.6-99.6-55 0-99.6 44.6-99.6 99.6 0 55 44.6 99.6 99.6 99.6zM512 483.6c55 0 99.6-44.6 99.6-99.6 0-55-44.6-99.6-99.6-99.6-55 0-99.6 44.6-99.6 99.6 0 55 44.6 99.6 99.6 99.6zM860.4 483.6c55 0 99.6-44.6 99.6-99.6 0-55-44.6-99.6-99.6-99.6-55 0-99.6 44.6-99.6 99.6 0.1 55 44.7 99.6 99.6 99.6z"  horiz-adv-x="1024" />

    
    <glyph glyph-name="houtaiguanli" unicode="&#59011;" d="M825.7 608.1l52.8 21.2 47.8 64-63.7 63.7-64.3-47.8-20.9-52.8-158.5-158.2 51.8-45 155 154.9z m93.1-431.3L632 426.6l-10.3 8.7-81.8 71.2c10 48.4 27.8 178.7-44.7 251.1-47.8 47.8-111.2 74-178.3 74-16.6 0-33.1-1.6-49.3-4.7-4.4-0.9-8.1-4.1-9.4-8.4-1.2-4.4 0-9.1 3.1-12.2l108.1-108.1L391 593.6l-88.4-88.4L198 526.8 89.8 635c-3.1 3.1-8.1 4.4-12.5 3.1-4.4-1.2-7.5-5-8.4-9.4-16.6-82.8 9.4-168 69-227.7 35.6-35.6 90.9-54.3 160.2-54.3 29 0 60.3 3.4 90.9 9.7l329.8-378.2c27.2-27.2 62.5-41.9 100.3-41.9 37.5 0 73.1 14.7 99.6 41.2 55 55 55 144.6 0.1 199.3z m-75-124.3c-13.7-13.7-35.9-13.7-49.7 0-13.7 13.7-13.7 35.9 0 49.7 13.7 13.7 35.9 13.7 49.7 0 13.8-13.8 13.8-36 0-49.7zM371.9 288c-12.5 12.5-32.8 12.5-45.3 0L116.1 77.1c-12.5-12.5-12.5-32.8 0-45.3l82.1-82.1c12.5-12.5 32.8-12.5 45.6 0L448.4 154c12.5 12.5 12.5 32.8 0 45.6L371.9 288z"  horiz-adv-x="1024" />

    
    <glyph glyph-name="QQ" unicode="&#58984;" d="M938.1 240.2l-2.3 16.2-2.9 15.8-2.3 8.2-2.3 8.6-2.9 8.3-3 9.1-3.5 8.7-3.8 8.9-6.7 14.5-5.9 12.8-6 11.4-5.2 10.7-6 9.7-4.3 8.9-9.3 13.3L860 423l-2.7 4.4-0.9 1.8v1.5l2 6 2.7 5.3 2.3 10.5 1.3 5.5v5.6l0.7 4.5v4.5l-0.7 5.2-0.7 4.3-1.7 8.6-2.3 8.4-2 7.7-3.2 7.5-3.6 6.2-2.8 5.9-3.1 5.6-4.9 8.2-1.9 2.9-0.5 2.6-2.3 15.9-1.5 10.5-1.6 13.1-2.6 13.4-4.1 15.5-2.3 8.6-1.8 7.3-2.6 8.5-2.8 9.1-2.9 8.4-3.6 9-7.5 17.4-4.4 8.3-5.4 9.4-5 8.2-5 9.1-7.1 8.5-5.9 8.3-7.3 8.5-7.4 7.7-7.5 7.5-8.8 7.7-4.7 2.8-4.4 3.9-9.6 6.7-11 7.4-11.3 6.6-11.7 6-12.7 5.5-11.9 5.2-12.5 4.5-13.6 3.7-12.4 3.3-13.2 2.9-12.6 3.1-13.5 1.5-13.2 1.6-13.2 1.7H517.5l-13.4-0.8-12.5-1.7-12.5-1.8-12.8-2.1-12.6-2.4-11.9-2.9-11.9-3.9-11.1-3.8-11.1-3.7-11.2-5.5L386 799l-9.3-5.3-9.7-6-8.9-6.3-8.8-7-7.3-6.5-11.4-10.8-9.5-10-9.1-9.7-8.3-9.9-7.8-10.1-6.8-9.8-6.6-9.8-3.1-4.4-2.9-5.4-6.2-9.3-4.9-9.3-4.4-8.8-3.8-9.3-3.8-8.5-3.1-8-2.8-8.5-2.9-7.9-3.9-14.2-2.8-13.7-1.6-11.4-1.6-9.9v-19.1l-2.7-3-2.4-4-2-3.6-1.6-3.8-2.1-8.4-2.4-7.7-0.7-6.9-0.5-5.1v-5.4l-5.4-7.8-3.7-7.7-2.9-7.4-2.1-6.7-1.6-6.4-1.6-6v-15.3l0.9-3.7 1.3-6.8 1.7-5.2-3-2.2-8.3-6.3-11-10.1-6.8-6-6.6-5.8-4.5-4.7-3.8-4.1-8-8.7-7.6-8.6-6-7.5-7.2-10.7-6.8-9.7-6.8-10.8-5.6-10-4.8-10.6-5-9.9-3.6-9.7-3.9-10.1-2.9-9.9-2.8-10.1-2.5-8.8-1.4-9.4-1.5-8.8-1.3-8.5-0.8-16.6v-22.4l0.8-6.8 2.1-11.6 0.7-5 1.4-5.2 1.7-4.9 1.6-3.5 2.6-6.4 1.9-1.3 1.2-2.7 1.5-0.6h1.6l6.6 0.6 6.8 1.8 5.6 2.2 6 3.9 5.5 3.6 4.9 4.7 5.3 4.9 4.5 5 4.3 5.7 3.9 5.2 3.7 4.3 2.2 4.9 4.5 8.1 1.4 3.4 0.8 1.9 0.4 2.3 1 1.9 0.8 0.4 1.5 0.8h1l0.4-0.8h0.7l0.8-0.4 2.5-11.1 2.7-8.9 3.6-9.3 3.7-8.4 3-8.3 4.7-7.4 3.5-7.7 3.9-7.1 4.5-6.1 3.4-5.9 9.1-10.9 7.9-9.7 7.6-7.5 7.5-6.8 6.6-5.3 9.7-8.7 3.9-1.9 1.3-1.8v-0.9l-0.9-0.9h-0.4l-2-0.6-7.3-0.6-6.7-0.9-5.7-0.8-6-1.3-5.2-1.6-5.1-1.6-4.6-2.4-3.6-2.3-4.5-1.4-2.9-2.4-3.1-1.9-3.3-2.6-4.1-5.2-1.5-2.4-2-2.1-2.6-5.5-1.4-4.5-1.7-4.6-0.4-3.9v-7.5l-0.7-3.7v-3.8l-0.9-3.7v-3.3l0.9-3.6 0.7-3.2 2.1-6.2 1.4-3 1.9-2.9 2-2.9 2.2-2.6 3-2.9 2.2-2.3 6.6-5 6.7-4.1 7.6-3.8 8.1-3.3 8.7-3.6 9.6-2.2 9.6-3.2 10.4-2.2 10.3-1.5 10.7-1.6 11-1.6 21.7-2.3 22.4-0.4H386l9.7 0.4 8.4 0.9 8 0.7 7.5 0.7 12.1 2.3 8.7 2.4 8.3 2.2 15.2 6.4 7 2.6 6.6 3.3 10.9 6.2 9.8 4.9 7.3 4.7 5.3 4.9 8.3-0.9 6.4-0.7 12.8-1h11l3.8-0.8 4-1.5 6.2-2.3 7-2.4 13.2-4.1 13.5-5 13.2-3.8 13.3-2.7L637-50l14.1-2 13.3-1.5 13.4-1.9 12.4-1.2 13.4-0.7h37.1l11.9 1.4 11.7 0.5 11.2 1.9 10.4 2.3 10.4 2.2 9.9 2.4 4.2 1.2 4.6 1.5 8.6 3.4 7.7 3.6 7.2 3.8 6.8 3.9 5.9 4.4 2.4 2.5 2.8 3.3 3.6 4.4 4 5.4 1.4 2.8 0.6 2.3 1.7 2.9 0.6 3.2v3.1l0.8 3-0.8 4.5-0.6 3.9-1.7 4.5-1.3 3.8-2.4 4.5-3 4.1-2.9 3.6-3.8 3-8 6.9-8.9 6.7-9 5.3-9.5 5.5-21.6 10.7-5.2 3.1-1.4 1.5-0.9 1 10.4 10.5 4.5 5.1 3.7 4.8 7.3 10.5 6.9 10.8 5.8 9.6 5.5 9.2 7.4 18.4 5.7 15.2 3.8 10.8 2.1 3.6 1.4 2.9 2.2 1.8h1l0.6-0.4 5.6-11.1 5-10.6 3.5-6 3.6-5.2 3.5-6.4 4.7-6.3 3.8-4.3 2.4-2.4 2.3-2.2 2.1-1.6 2-1.4 4.5-2.3 2.3-0.8h3.6l2.3 0.8 2.9 1.5 3.3 1.4 2.6 2.4 2.5 2.8 2.8 3.5 2.3 2.6 2.5 4.3 1.8 3.5 2.3 4.9 1.2 4.1 3.2 10.1 2.1 11.2 1.5 12.4 1 7.2v20.2l-1.5 14.4z"  horiz-adv-x="1024" />

    
    <glyph glyph-name="gerenziliao" unicode="&#58969;" d="M728.8 50v39.6h177.8c7.6 0 13.8 6.2 13.8 13.8V664.5c0 7.6-6.2 13.8-13.8 13.8H491.7V718h414.9c29.4 0 53.4-24 53.4-53.4v-561.1c0-29.5-24-53.4-53.4-53.4H728.8v-0.1z m-137.1 5.4v2c0 133.6-108.7 242.2-242.3 242.2-133.6 0-242.2-108.7-242.2-242.2v-2H64v2c0 127.9 85.3 239.9 208.2 274.5-72.7 30.8-121.1 103.4-121.1 182.4 0 109.3 88.9 198.3 198.3 198.3 109.3 0 198.3-89 198.3-198.3 0-79-48.4-151.6-121.1-182.4 122.9-34.6 208.2-146.6 208.2-274.5v-2h-43.1z m-242.3 614c-85.5 0-155.1-69.6-155.1-155.1s69.6-155.1 155.1-155.1 155.1 69.5 155.1 155.1c0 85.5-69.5 155.1-155.1 155.1z m299.1-374.9v44.6h208.6v-44.6H648.5z m-73.1 134.9V474h281.8v-44.6H575.4z m0 126.5v44.6h281.8v-44.6H575.4z"  horiz-adv-x="1024" />

    
    <glyph glyph-name="daan" unicode="&#58985;" d="M203 263.3c0-12.4 10.5-22.4 23.4-22.4h302.9c12.9 0 23.4 10 23.4 22.4 0 12.4-10.5 22.4-23.4 22.4H226.4c-12.9 0-23.4-10-23.4-22.4z m0 0M197.4-64c13 0 21.4 10.3 21.4 22.9 0 12.7-8.5 22.9-21.5 22.9-38.2 0-66.1 30.3-66.1 69V717.2c0 40 21.2 70 58.8 70h616.3c39.3 0 71.3-31.5 71.3-69.5 0-12.7 10.6-23.2 23.5-23.2 13 0 23.5 10.1 23.5 22.8 0 63.3-53.1 114.7-118.4 114.7H190c-63.9 0-103.6-49.4-103.6-114.8v-666.3c0-64.5 46.4-114.9 111-114.9z m0 0M762.5 451.2c0-12.4-10.4-22.4-23.3-22.4H226.3c-12.9 0-23.3 10-23.3 22.4 0 12.4 10.4 22.4 23.3 22.4h512.9c12.9 0 23.3-10 23.3-22.4z m0 179.2c0-12.4-10.4-22.4-23.3-22.4H226.3c-12.9 0-23.3 10-23.3 22.4 0 12.4 10.4 22.4 23.3 22.4h512.9c12.9 0 23.3-10 23.3-22.4z m0 0M669.3-18.4c4.2-4.3 6.5-10.1 6.3-16.1-0.2-6-2.9-11.6-7.3-15.6-9.5-8.5-24-8-33 1L475.8 114.3c-4.2 4.3-6.5 10.1-6.3 16.1 0.2 6 2.9 11.6 7.3 15.6 9.5 8.5 24 8 33-1l159.5-163.4z m0 0M667-49.8c-9.2-8.8-23.7-8.8-33 0-4.4 4.1-6.8 9.8-6.8 15.8s2.5 11.7 6.8 15.8l263.8 253.4c9.2 8.8 23.7 8.8 33 0 4.4-4.1 6.8-9.8 6.8-15.8s-2.5-11.7-6.8-15.8L667-49.8z m0 0"  horiz-adv-x="1024" />

    
    <glyph glyph-name="yewu" unicode="&#58986;" d="M328.6 669.7c12.2 0 20.4 8.1 20.4 20.4v69.2c0 18.3 16.3 32.6 34.6 32.6h256.6c18.3 0 34.6-14.3 34.6-32.6V690c0-12.2 8.1-20.4 20.4-20.4 12.2 0 20.4 8.1 20.4 20.4v69.2c0 40.7-34.6 73.3-75.3 73.3H383.6c-40.7 0-75.3-32.6-75.3-73.3V690c-0.1-12.2 8.1-20.3 20.3-20.3zM898.8 628.9H125c-34.6 0-61.1-26.5-61.1-61.1V466H960V567.8c-0.1 34.7-26.6 61.1-61.2 61.1zM63.9 425.3v-427.7c0-34.6 26.5-61.1 61.1-61.1h773.9c34.6 0 61.1 26.5 61.1 61.1V425.3H63.9zM573 303.1H450.8c-12.2 0-20.4 8.1-20.4 20.4 0 12.2 8.1 20.4 20.4 20.4H573c12.2 0 20.4-8.1 20.4-20.4-0.1-12.3-8.2-20.4-20.4-20.4z"  horiz-adv-x="1024" />

    
    <glyph glyph-name="dujia" unicode="&#58987;" d="M263.1 334.3h497.8c24.9 0 49.8 24.9 49.8 49.8 0 112.3-73.9 189.1-168.6 225.3 34.7 61.7 21.5 139.2-31.9 185.8-53.3 46.5-132 49.3-188.4 6.6-56.4-42.7-75.1-119.2-44.7-183.1C277 592.5 213.4 526.5 213.4 384c0-24.9 24.8-49.7 49.7-49.7zM910.2 185.7c-99.5 0-149.3 73.8-199.1 73.8-49.8 0-100.8 24.9-174.2 24.9H362.7c-24.4 0-74.7 0-74.7-49.7 0-49.8 46.5-51.2 74.7-49 49.8 0 77.9-0.9 131.2 0 49.8 0.8 67.9-25.7 67.9-45.1 0-24.9 0.6-66.2-24.9-80.2-74.7-24.9-189.6-14.7-248.9 24.9-74.7 49.8-99.5 121.9-99.5 124.5 0 49.8-49.8 74.6-74.7 74.6-24.9 0-49.8-22.9-49.8-49.7 0-42.7 24.9-151.8 124.5-227.9 44.8-34.2 124.5-70.8 224-70.8 73.3 0 122.9 11 192.8 32.8 71.9 14.3 205.5 17 305 17 24.9 0 49.8 24.9 49.8 49.7V135c-0.1 25-25 50.7-49.9 50.7z"  horiz-adv-x="1024" />

    
    <glyph glyph-name="xingxing" unicode="&#58988;" d="M509.4 500.9c-39.9 0-72-12.2-95.5-36.2-39.1-40-38.3-98.2-38.3-100.6 0.2-10.6 8.9-19 19.5-19h0.4c10.7 0.2 19.3 9.1 19.1 19.8 0 0.4-0.4 44.7 27.3 72.8 15.8 16.1 38.5 24.2 67.4 24.2 10.8 0 19.5 8.7 19.5 19.5s-8.7 19.5-19.4 19.5zM955.7 494.6c-9.9 28-34.7 48.2-64.9 52.6L678 578.4l-92.4 189c-13.4 27.4-42.2 45.1-73.5 45.1-31.2 0-60.1-17.7-73.5-45.1l-92.5-189-212.8-31.2c-30.2-4.3-55.1-24.5-65-52.6-9.9-28.4-2.5-59.3 19.1-80.6l156.2-153.7-36.2-212.9c-5.1-29.7 8.1-60.1 33.7-77.6 25-16.9 58.6-18.7 85.6-4.5L512 63.5l185.4-98.4c12-6.3 25.5-9.7 39-9.7 16.6 0 32.7 4.9 46.7 14.3 25.5 17.4 38.7 47.8 33.6 77.5l-36.2 213 156.2 153.7c21.5 21.3 28.9 52.2 19 80.7z m-46.5-52.9l-170.7-168 39.6-233c2.6-15-4-29.8-17-38.7-13.3-9-31.3-9.9-45.5-2.4L512 107.6l-203.5-108c-14.4-7.6-32.4-6.5-45.5 2.3-13.2 9-19.7 23.8-17.2 38.8l39.6 233-170.7 168c-10.8 10.6-14.5 26-9.7 40 5 14.3 18 24.7 33.8 26.9L372 542.9l101.5 207.5c6.9 14.1 22 23.2 38.5 23.2s31.6-9.1 38.5-23.2L652 542.9l233.1-34.1c15.8-2.3 28.8-12.7 33.8-27 4.9-14.1 1.2-29.4-9.7-40.1z"  horiz-adv-x="1024" />

    
    <glyph glyph-name="tianping" unicode="&#58989;" d="M847.1 694.7a107.46 107.46 0 0 1-80.7 36.5h-139c-54.4 0-91.3-31.6-115.4-66.4-24.1 34.8-60.9 66.4-115.3 66.4H257.4c-30.9 0-60.3-13.3-80.7-36.5L64 566.2c5.7-78.5 70.5-140.5 150.5-140.5 79.9 0 144.7 62 150.5 140.5l-91.7 101.3h123.4c25.4 0 44.3-14.8 59-33.4v-420.9h-110c-30.4 0-55.1-24.7-55.1-55.2v-20h-15.1c-30.4 0-55.1-24.7-55.1-55.2v-46.1h565.4v46.1c0 14.6-5.8 28.7-16.2 39-10.3 10.3-24.4 16.2-39 16.2H717v20c0 14.6-5.8 28.7-16.2 39-10.3 10.3-24.4 16.2-39 16.2H550.3V605.7c14.7 29.3 39.6 61.8 77.1 61.8h123.4L659 566.2c5.8-78.5 70.6-140.5 150.5-140.5 80 0 144.7 62 150.5 140.5L847.1 694.7zM153.7 566.2l61.9 70.3 61.9-70.4-123.8 0.1z m592.8 0l61.9 70.4 61.8-70.4H746.5z m0 0"  horiz-adv-x="1024" />

    
    <glyph glyph-name="kefu" unicode="&#58990;" d="M862 118c-54.2 0-98 43.9-98 98V328c0 39 23 72.4 56 88.2V426h2.8c-1.6 4.5-2.8 9.1-2.8 14 0 23.2 18.8 42 42 42s42-18.8 42-42c0-5-1.3-9.6-2.9-14h2.9v-9.7c33-15.8 56-49.2 56-88.2V216c0-54.2-43.9-98-98-98z m14 434c0-23.2-18.8-42-42-42s-42 18.8-42 42c0 0.3 0.3 0.7 0.3 1C743.8 659.6 636.7 734 512 734c-170.1 0-308-137.9-308-308v-9.7c33-15.8 56-49.2 56-88.2V216c0-54.1-43.8-97.9-98-97.9-54.1-0.1-98 43.7-98 97.9V328c0 39 22.9 72.4 55.9 88.2V440c0 208.8 169.3 378 378 378H526c167.6 0 309.6-109.2 359-260.3l-10-1.1c0.2-1.6 1-3 1-4.6zM610 62h28c6 0 11.7-1.3 16.9-3.7l73.8 42.7c10.9 6.3 29.1-4.9 40.7-24.9 11.6-20.2 12.2-41.5 1.3-47.8l-95.9-55.4c-7.1-13.4-20.6-22.8-36.8-22.8h-28c-23.2 0-42 18.8-42 42v28c0 23 18.8 41.9 42 41.9z m0 0"  horiz-adv-x="1024" />

    
    <glyph glyph-name="qiandai" unicode="&#58991;" d="M738 494.8c-15.4 17.4-37.7 27.2-60.9 27.2H369.8c-22.2 0-43.6-8.9-59-25-96.5-101.1-185.6-245.6-185.6-350.9 0-92.8 93.3-210.1 208.3-210.1h356.7c115.1 0 208.3 116.2 208.3 210.1 0.2 107.2-71.4 247.5-160.5 348.7zM644.1 367l-61.8-112.1c-5.4-9.8 1.7-21.9 12.9-21.9h17.5c8.1 0 14.8-6.6 14.8-14.8 0-8.1-6.6-14.8-14.8-14.8h-44.1c-8.6 0-15.4-6.9-15.5-15.4v-7.3c0-8.1 6.6-14.8 14.8-14.8h44.8c8.1 0 14.8-6.6 14.8-14.8 0-8.2-6.6-14.8-14.8-14.8H568c-8.1 0-14.8-6.6-14.8-14.8v-37.7c0-8.1-6.6-14.8-14.8-14.8h-26.8c-8.1 0-14.8 6.6-14.8 14.8v37.7c0 8.1-6.6 14.8-14.8 14.8h-44.3c-8.1 0-14.8 6.6-14.8 14.8 0 8.2 6.6 14.8 14.8 14.8H482c8.2 0 14.8 6.6 14.9 14.8l0.1 7.2c0.1 8.6-6.9 15.6-15.5 15.6h-43.7c-8.1 0-14.8 6.6-14.8 14.8 0 8.1 6.6 14.8 14.8 14.8h17.1c11.3 0 18.3 12.1 12.9 21.9L406 367.1c-5.4 9.8 1.7 21.9 12.9 21.9h29.4c5.6 0 10.7-3.2 13.2-8.1l50.3-100.3c5.4-10.8 21-10.8 26.5 0l50.3 100.3c2.5 5 7.6 8.1 13.2 8.1H631c11.4-0.2 18.5-12.2 13.1-22zM664.3 826.7c-96.6 0-63.9-63.4-101.5-68.6-28-3.9-27 33.1-71 68.5-31.6 25.4-67-46.3-108.7-46.8-48.7-0.6-117.1 12.8-117.1-70.4 0-33.6 29.4-79 61.6-116.7 12.9-15.1 31.5-23.9 51.3-23.9h287.9c19.4 0 38.1 8.2 50.6 23.1 29.7 35.3 57.9 78.7 64.2 117.5 12.6 77.8-20.7 117.3-117.3 117.3z"  horiz-adv-x="1024" />

    
    <glyph glyph-name="fuwu" unicode="&#58992;" d="M798.4 610.8c0 88-68.8 156.8-156.8 156.8-49.6 0-97.6-23.2-128.8-60-31.2 36.8-79.2 60-128.8 60-88 0-156.8-68.8-156.8-156.8 0-108.8 96.8-183.2 244-316.8l41.6-37.6 41.6 37.6c147.2 133.6 244 208.8 244 316.8zM307.2 164.4C201.6 185.2 128 282 128 400.4v32H64v-32c0-148.8 95.2-272 231.2-298.4 14.4-3.2 24.8-16 24.8-31.2v-70.4h64V70c0 46.4-32 85.6-76.8 94.4zM896 432.4v-32c0-118.4-73.6-215.2-179.2-235.2-44.8-8.8-76.8-48.8-76.8-94.4v-70.4h64v70.4c0 15.2 10.4 28 24.8 31.2C864.8 128.4 960 251.6 960 400.4v32h-64z"  horiz-adv-x="1024" />

    
    <glyph glyph-name="checkbox" unicode="&#58993;" d="M870.4-64H153.6c-48.7 0-89.6 40.9-89.6 89.6V742.4c0 48.7 40.9 89.6 89.6 89.6h714.8c50.6 0 91.5-40.9 91.5-89.6v-714.8c0.1-50.7-40.8-91.6-89.5-91.6z m-695 833.9c-27.4 0-49.4-21.9-49.4-49.4v-671.2c0-27.4 21.9-49.4 49.4-49.4h671.2c27.4 0 49.4 21.9 49.4 49.4V720.6c0 27.4-21.9 49.4-49.4 49.4H175.4zM153.6 795"  horiz-adv-x="1024" />

    
    <glyph glyph-name="radio-" unicode="&#58994;" d="M512-64C264.6-64 64 136.60000000000002 64 384S264.6 832 512 832s448-200.6 448-448-200.6-448-448-448z m0 641.7c-107 0-193.7-86.7-193.7-193.7 0-107 86.7-193.7 193.7-193.7 107 0 193.7 86.7 193.7 193.7 0 107-86.7 193.7-193.7 193.7z m0 190.3"  horiz-adv-x="1024" />

    
    <glyph glyph-name="radio" unicode="&#58995;" d="M512-64C264.6-64 64 136.60000000000002 64 384S264.6 832 512 832s448-200.6 448-448-200.6-448-448-448z m0 832c-212.1 0-384-171.9-384-384s171.9-384 384-384 384 171.9 384 384-171.9 384-384 384z m0 0"  horiz-adv-x="1024" />

    
    <glyph glyph-name="checkbox-" unicode="&#58996;" d="M886.9 832h-748c-40.9 0-74-33.1-74-74v-746c0-42.9 33.1-76 74-76h746c40.9 0 74 33.1 74 74V758c2 40.9-31.1 74-72 74zM809 559.3L419.4 175.6c-5.8-5.8-11.7-7.8-19.5-7.8-7.8 0-13.6 3.9-19.5 7.8L214.9 347c-9.7 9.7-11.7 27.3-3.9 39l3.9 5.8c3.9 5.8 9.7 9.7 17.5 9.7 7.8 0 13.6 0 19.5-5.8l126.6-97.4c11.7-9.7 29.2-7.8 39 0L772 592.4c11.7 9.7 25.3 7.8 37-1.9 0 0 0 1.9-1.9 1.9l1.9-1.9h-1.9c3.9-3.9 5.8-11.7 5.8-17.5 3.9-2 1.9-7.9-3.9-13.7z m0 0"  horiz-adv-x="1024" />

    
    <glyph glyph-name="ziyuan" unicode="&#58999;" d="M960 130.9c0-43-34.9-77.9-77.9-77.9H142.3c-43 0-77.9 34.9-77.9 77.9V339.3c-1.3 5.4 0.1 12.1 4.6 19.3l192 323.5c11.4 18.1 38.3 32.9 59.7 32.9h400.9c21.4 0 47.7-15.2 58.4-33.7l175.1-322c2.9-5.1 4.3-9.9 4.4-14.2h0.2v-214.2z m-856.6 0c0-21.5 17.4-38.9 38.9-38.9h739.8c21.5 0 38.9 17.4 38.9 38.9V325.6H687.4v-77.9c0-21.5-17.4-38.9-38.9-38.9H375.9c-21.5 0-38.9 17.4-38.9 38.9v77.9H103.4v-194.7z m545.1 136.3v97.3H375.9v-97.3c0-10.8 8.7-19.5 19.5-19.5H629c10.8 0 19.5 8.7 19.5 19.5z m109.3 375.1c-10.7 18.5-37 33.7-58.4 33.7h-357c-21.4 0-48.3-14.8-59.7-32.9L124.2 364.7l779.1-0.2-145.5 277.8zM259.1 442.4c0 10.8 8.7 19.5 19.5 19.5h467.2c10.8 0 19.5-8.7 19.5-19.5s-8.7-19.5-19.5-19.5H278.6c-10.8 0-19.5 8.7-19.5 19.5z m447.8 58.4H317.5c-10.8 0-19.5 8.7-19.5 19.5s8.7 19.5 19.5 19.5h389.4c10.8 0 19.5-8.7 19.5-19.5s-8.7-19.5-19.5-19.5zM668 578.7H356.5c-10.8 0-19.5 8.7-19.5 19.5 0 10.7 8.7 19.5 19.5 19.5H668c10.8 0 19.5-8.7 19.5-19.5-0.1-10.8-8.8-19.5-19.5-19.5z m0 0"  horiz-adv-x="1024" />

    
    <glyph glyph-name="xiangmu" unicode="&#59000;" d="M546 754.8H286.4V-24h259.7l-0.1 778.8z m-37-741.7H323.5V717.7H509v-704.6zM351.3 656.6h129.8v-26H351.3v26z m0-74.3h129.8v-26H351.3v26z m64.9-409.8c16.4 0 29.7-13.3 29.7-29.7s-13.3-29.6-29.7-29.6-29.7 13.3-29.7 29.7 13.4 29.6 29.7 29.6m0 26c-30.7 0-55.6-24.9-55.6-55.6 0-30.7 24.9-55.6 55.6-55.6 30.7 0 55.6 24.9 55.6 55.6 0.1 30.7-24.9 55.6-55.6 55.6z m0 0M765.4 747.9l150.4-688.4L734.6 20 584.2 708.4l181.2 39.5m28.3 44.2l-253.6-55.4 166.3-760.9L960 31.3 793.7 792.1z m0 0M624.5 654.5l126.8 27.7 5.5-25.4L630 629.1l-5.5 25.4z m15.8-72.5l126.8 27.7 5.5-25.4-126.8-27.7-5.5 25.4z m150.8-386.4c16 3.5 31.9-6.6 35.4-22.7 3.5-16-6.6-31.8-22.7-35.4-16-3.5-31.8 6.6-35.4 22.7-3.4 16 6.7 31.9 22.7 35.4m-5.5 25.3c-30-6.5-49-36.2-42.5-66.2s36.2-49 66.2-42.5 49 36.2 42.5 66.2-36.1 49-66.2 42.5z m0 0M64 754.8V-24h259.5V754.8H64z m222.4-741.7H101V717.7h185.4v-704.6zM128.8 582.3h129.8v-26H128.8zM193.7 198.5c-30.7 0-55.6-24.9-55.6-55.6 0-30.7 24.9-55.6 55.6-55.6 30.7 0 55.6 24.9 55.6 55.6 0 30.7-24.9 55.6-55.6 55.6z m0-85.3c-16.4 0-29.7 13.3-29.7 29.7s13.3 29.6 29.7 29.6 29.7-13.3 29.7-29.7-13.4-29.6-29.7-29.6zM128.8 656.6h129.8v-26H128.8z"  horiz-adv-x="1024" />

    
    <glyph glyph-name="qiandai1" unicode="&#59001;" d="M841.7 265.4C798.4 380.9 678.8 506.7 653.4 531l-0.9 0.9c-3 2.7-6.2 5.5-9.8 8.4-2.7 2.9-5.2 5.4-7.5 7.8 7.7-6.4 17.5-10.4 28.5-10.4 17.4 0 32.4 10.1 39.8 24.7 26-5.2 94-20 102.9-57.3 2.1-8.8 10-14.7 18.7-14.7 1.5 0 3 0.2 4.5 0.5 10.3 2.5 16.7 12.8 14.2 23.3-11.2 46.6-62.7 68.2-101.9 78.9 18.5 17.3 35.2 39.4 37.1 54.7 1.3 10.2-5.8 19-16 20.7-10.2 1.7-20-5.6-22.2-15.7-2.1-10-26.3-34.7-40.4-44.8-8.1 11.6-21.6 19.3-36.8 19.3-13.4 0-25.4-6-33.6-15.4 4.7 7 9.7 11.8 12.2 14 1.8 1.6 5.2 4.2 9.6 7.7 48.9 38.5 95.5 70.8 105.2 100.5 2.7 8.2 4.5 13.5 5.8 17 1.9 5.4 7.5 21.3-6.9 28.6-2.9 3.1-8.1 6.8-16.4 6.8-6.5 0-13-2.2-21.4-5-13.8-4.7-33.1-10-45.5-4.8-10.4 4.4-20.5 11.5-31 19-19.6 13.9-41.9 29.9-73.1 32.1-24.8 1.8-44.9-6.6-64.2-14.7-17.1-7.2-33.3-14-55-14h-0.1c-21.1 0.4-44.2 3.5-64.6 6.2-19.1 2.6-35.7 4.8-49 4.8-5.6 0-10.3-0.4-13.4-1.1-2 1.6-5.1 5.4-9.1 11.3-3 4.7-7.8 11.7-17.6 11.7-5.5 0-10.9-2.7-14.2-7.1-5.8-7.7-5.5-9 4.2-43.3l1.4-4.9c0.3-1.1 0.6-3.1 1.1-5.8 3.4-19.2 11.5-56.9 33.1-80.4 3-3.8 6.3-7.9 9.9-12.3 16.5-20.3 37.8-46.6 48.4-74.7-5.2-1.1-10.4-1.9-15.6-3.1-9.5-2.1-15.5-11.6-13.4-21.2 2.1-9.5 11.6-15.4 21.1-13.3 4.8 1.1 9.6 1.9 14.4 2.8-0.3-9.2-2.3-18.5-6.6-27.7-2.7-3.9-5.4-7-8-9.2C281.7 456 218 361.4 182 265.2c-35.7-95.1-38.2-134.1-37.7-165.8 0.7-43.4 2.5-158.6 207.8-161.6 183.1-2.7 206.4-2 320.3-0.7 205 2.2 206.7 118.6 207.4 162.4 0.1 31.9-2.4 70.9-38.1 165.9z m-321.4 3.8v98.4c22.4-4.6 42.5-15.1 58.7-33l22.5 27.4c-20.6 21.3-47.4 35.7-81.2 40.1v42h-19.5v-0.4h-17.1v-40c-53.9-4-91.4-36.9-91.4-83.1 0-55.2 45.6-70.6 91.4-83.1v-109.2c-35.5 4-61.3 22.1-78.4 42.2l-22.5-28.8c22.5-25.6 55.5-44.5 100.8-47.2v-40.3h29.6v0.3h7.1v41.1c64 7.4 88 47.6 88 86.6 0 56-43.9 74.1-88 87z m-36.7 9.3c-30.6 9-52.8 19.7-52.8 44.5 0 26.1 21 44.9 52.8 47.2v-91.7z m36.7-149.3V228c28.1-9.1 49.3-21.6 49.3-48.5 0.1-20.1-12.3-43.8-49.3-50.3z m-162.2 564c-3.4 4.2-6.6 8.2-10.4 12.9-14.3 15.6-21.4 50.5-24.6 67.5 1.4 0.1 2.9 0.3 4.3 0.6 1.3 0.3 3.7 0.6 8 0.6 11 0 27.2-2.2 44.3-4.5 21.3-2.8 45.4-6.1 68.6-6.5h2.5c27.2 0 48.4 8.9 67.2 16.8 16.9 7.1 31.2 13.2 47.8 12 21.3-1.5 37.7-13.2 55.1-25.6 11.6-8.3 23.7-16.8 37.7-22.8 20.2-8.6 47.1-3.9 65 1.9-0.1-0.3-0.2-0.7-0.3-1-5.1-15.7-36.5-38.9-93.3-83.7-4.9-3.9-8.6-6.8-10.6-8.5-5.9-5-20.3-16-28.8-37.4-51.8 8.1-112.5 7.2-176.1-2.6-12.2 36.2-37.9 57.4-56.4 80.3z m268.3-135.6c-3.1 3.8-5 7.3-5.9 12.3 0.1 0 0.2-0.1 0.4-0.1 1.1-4.3 2.9-8.4 5.5-12.2zM844 100.2c-0.7-43.9-1.9-122.5-172.4-124.4-100-1.1-112.8-2.4-319.4 0.7-171 2.5-172.3 80.2-172.9 123.7-0.4 28.4 1.9 63.6 35.5 152.9 33.9 90.4 94.1 180.1 179 252 5.2 4.4 10.3 10.2 15.1 17.3 0.4 0.6 0.8 1.3 1.2 2 8.6 17.2 11.7 34.3 11 50.7 59 8.9 115.7 9.8 163.3 2.5 0-1.4-0.2-2.6-0.1-4 1.7-26.5 12.7-37.4 24.4-48.9 2.7-2.7 5.6-5.6 8.8-9 0.6-0.6 1.2-1.2 1.8-1.7 3.6-3 6.9-5.8 9.5-8.2 14-13.3 138.1-141.3 179.8-252.7 33.5-89.4 35.8-124.5 35.4-152.9z"  horiz-adv-x="1024" />

    
    <glyph glyph-name="rili" unicode="&#59002;" d="M654.5 78.5h38.7V406.4h-28.5c-2-12.2-6.1-22.4-12.2-30.5-6.1-8.1-12.2-14.3-20.4-18.3-8.1-4.1-18.3-8.1-28.5-10.2-10.2-2-20.4-2-30.5-2v-30.6h81.5v-236.3z m224 672H797V811.6c0 12.2-8.1 20.4-20.4 20.4-12.2 0-20.4-8.1-20.4-20.4v-61.1H267.6V811.6c0 12.2-8.1 20.4-20.4 20.4-12.2 0-20.4-8.1-20.4-20.4v-61.1h-81.5c-44.8 0-81.5-36.6-81.5-81.4v-651.6c0-44.8 36.7-81.4 81.5-81.4h733.1c44.8 0 81.5 36.6 81.5 81.4V669.1c0.1 44.8-36.6 81.4-81.4 81.4z m40.8-733.1c0-22.4-18.3-40.7-40.7-40.7H145.5c-22.4 0-40.7 18.3-40.7 40.7V506.2h814.5v-488.8z m0 529.5H104.7V669.1c0 22.4 18.3 40.7 40.7 40.7h81.5v-61.1c0-12.2 8.1-20.4 20.4-20.4 12.2 0 20.4 8.1 20.4 20.4v61.1h488.7v-61.1c0-12.2 8.1-20.4 20.4-20.4 12.2 0 20.4 8.1 20.4 20.4v61.1h81.5c22.4 0 40.7-18.3 40.7-40.7v-122.2zM461.1 125.4c-6.1-6.1-14.3-10.2-22.4-12.2-8.1-2-16.3-4.1-26.5-4.1-22.4 0-38.7 6.1-48.9 20.4-12.2 14.2-18.3 30.5-18.3 50.9h-38.7c0-16.3 2-32.6 6.1-44.8 4.1-12.2 12.2-24.4 20.4-32.6 10.2-8.1 20.4-16.3 34.6-20.4 12.2-4.1 28.5-6.1 44.8-6.1 14.3 0 28.5 2 42.8 6.1 14.3 4.1 24.4 10.2 34.6 18.3 10.2 8.1 18.3 18.3 24.4 30.5 6.1 12.2 8.1 26.5 8.1 42.8 0 20.4-4.1 36.6-14.3 50.9-10.2 14.3-24.4 24.4-42.8 28.5 12.2 6.1 22.4 14.3 30.5 26.5 8.1 12.2 12.2 24.4 12.2 38.7 0 14.3-2 28.5-8.1 38.7-4.1 10.2-12.2 20.4-20.4 26.5-8.1 6.1-18.3 12.2-30.5 16.3-12.2 4.1-24.4 6.1-38.7 6.1-16.3 0-30.5-2-42.8-8.1-12.2-6.1-22.4-12.2-30.5-22.4-8.1-10.2-14.3-20.4-18.3-32.6-4.1-12.2-6.1-26.5-8.1-42.8H349c0 10.2 2 18.3 4.1 26.5 2 8.1 6.1 16.3 10.2 22.4 4.1 6.1 10.2 12.2 18.3 16.3 8.1 4.1 16.3 6.1 26.5 6.1 16.3 0 30.6-4.1 40.7-12.2 10.2-8.1 16.3-22.4 16.3-38.7 0-8.1-2-16.3-4.1-22.4-4.1-6.1-8.1-12.2-12.2-16.3-4.1-4.1-12.2-8.1-18.3-10.2-8.1-2-14.3-4.1-22.4-4.1h-16.3v-32.6c8.1 0 14.3 2 22.4 2 10.2 0 18.3-2 26.5-4.1 8.1-2 16.3-6.1 20.4-12.2 6.1-6.1 10.2-12.2 14.3-20.4 4.1-8.1 6.1-16.3 6.1-26.5s-2-18.3-6.1-26.5c-2.1-10-8.2-18.2-14.3-22.2z m0 0"  horiz-adv-x="1024" />

    
    <glyph glyph-name="youshang" unicode="&#59003;" d="M949.8 408.8L667.5 690.9c-13.6 13.6-35.7 13.6-49.4 0L512 584.8 405.9 690.9c-13.6 13.6-35.7 13.6-49.4 0L74.2 408.7c-13.6-13.6-13.6-35.7 0-49.4l282.3-282.2c13.6-13.6 35.7-13.6 49.4 0L512 183.2l106.1-106.1c13.6-13.6 35.7-13.6 49.4 0l282.3 282.3c13.6 13.5 13.6 35.7 0 49.4zM393.6 114.1c-6.9-6.9-17.9-6.9-24.7 0L111.3 371.7c-6.9 6.9-6.9 17.9 0 24.7L368.8 654c6.9 6.9 17.9 6.9 24.7 0l93.7-93.8-151.3-151.4c-13.6-13.6-13.6-35.7 0-49.4l151.5-151.5-93.8-93.8zM512 535.5l139.1-139.1c6.9-6.9 6.9-17.9 0-24.7L512 232.6 372.9 371.7c-6.9 6.9-6.9 17.9 0 24.7L512 535.5z m400.7-163.8L655.2 114.1c-6.9-6.9-17.9-6.9-24.7 0l-93.7 93.7 151.5 151.5c13.6 13.6 13.6 35.7 0 49.4L536.7 560.1l93.7 93.7c6.9 6.9 17.9 6.9 24.7 0l257.6-257.5c6.9-6.7 6.9-17.9 0-24.6z m0 0"  horiz-adv-x="1024" />

    
    <glyph glyph-name="toubiao" unicode="&#59004;" d="M678.8 186.5c-113.3-19.7-167.5 71.4-172.4 113.3l-44.3 9.9c0-9.9 2.5-9.9 4.9-19.7 27.1-115.9 128-162.6 221.6-145.4 115.7 22.2 169.9 133 145.3 231.5-19.7 91.1-128.1 172.4-241.3 133-2.5 0 29.6-34.5 29.6-34.5 81.3 9.9 150.2-29.5 169.9-108.4 22.1-83.7-32.1-167.4-113.3-179.7zM343.9 479.5l278.3-184.7c39.4-27.1 86.2-44.3 105.9-14.8 17.2 27.1-4.9 56.6-44.3 83.7L405.4 548.5l2.5 64-177.3 165c-12.3 7.4-27.1 7.4-39.4 0-12.3-7.4-17.2-22.2-14.8-34.5l4.2-93.1-88-30c-14.8-2.5-24.6-12.3-27.1-27.1-4.9-14.8 2.5-29.6 12.3-36.9l216.7-103.4 49.4 27zM952.1 447.5c-44.3 184.7-234 325.1-450.7 278.3-2.5-2.5 29.5-39.4 29.5-39.4 179.8 24.6 332.5-73.9 376.8-246.3 44.3-182.2-71.4-362-248.7-401.4-91.1-19.7-189.6-4.9-268.4 56.6-73.8 54.2-115.7 128.1-125.6 202l-49.3 14.8c0-22.2 2.5-19.7 7.4-41.9C279.8 65.8 469.4-50 668.9-5.6 880.7 38.7 991.5 248 952.1 447.5z"  horiz-adv-x="1024" />

    
    <glyph glyph-name="shenhe" unicode="&#59005;" d="M943.6 255.3a55.924 55.924 0 0 1-39.6 16.4H568V391.5c109.2 28.2 180.4 133.1 166.2 244.9C720 748.2 624.8 832 512 832c-112.8 0-208-83.8-222.2-195.6-14.2-111.8 57-216.7 166.2-244.9v-119.8H120c-14.9 0-29.1-5.9-39.6-16.4C69.9 244.8 64 230.6 64 215.8v-111.9c0-14.8 5.9-29.1 16.4-39.6 10.5-10.5 24.7-16.4 39.6-16.4h784c14.9 0 29.1 5.9 39.6 16.4 10.5 10.5 16.4 24.7 16.4 39.6V215.8c0 14.8-5.9 29-16.4 39.5zM820-8H204c-15.5 0-28-12.5-28-28 0-15.4 12.5-28 28-28h616c15.5 0 28 12.5 28 28 0 15.4-12.5 28-28 28z"  horiz-adv-x="1024" />

    
    <glyph glyph-name="tupian" unicode="&#59006;" d="M767.4 477c59 0 107 48.1 107 107 0 59-48.1 107-107 107-59 0-107-48.1-107-107s48-107 107-107z m0 172.6c34.9 0 63.3-28.4 63.3-63.4 0-34.9-28.4-63.3-63.3-63.3-35 0-63.3 28.4-63.3 63.3-0.1 32.8 28.3 63.4 63.3 63.4zM701.9 424.6c-8.7 8.7-21.8 8.7-30.6 0l-96.1-96.1-185.7 185.7c-8.7 8.7-21.8 8.7-30.6 0L64 217.1v-59l310.2 310.2 314.6-312.4c4.4-4.4 8.7-6.6 15.3-6.6 6.5 0 10.9 2.2 15.3 6.6 8.7 8.7 8.7 21.8 0 30.6L605.7 300.1l80.8 80.8L960 109.7v59L701.9 424.6zM960 76.9z"  horiz-adv-x="1024" />

    
    <glyph glyph-name="xunzhang" unicode="&#59007;" d="M527.6 309.1c34.5 2.5 69.8-9.2 96.1-35.2l85.1-84-10.1 55.3c-3.2 17.4 2 33.7 14.6 46.1l63.8 62.5 80 78.4c14.5 14.2 19.2 34 12.7 53.3-6.4 19.2-22.1 32.1-42.3 34.8l-191.2 24.8c-18.3 2.3-32.8 13.1-40.4 29.9l-80.4 178.6c-8.6 19-26.2 30.4-47.1 30.4-20.8 0-38.5-11.4-47.1-30.4l-80.6-179.1c-7.6-16.8-22-27.5-40.3-30l-191.6-25.4c-20.1-2.7-35.8-15.6-42.2-34.9-6.4-19.2-1.6-39 12.9-53.1l143.6-140.5c12.7-12.4 17.8-28.8 14.7-46.2L201.4 45c-3.7-20.3 4.1-39.5 21-51.4 16.8-11.9 37.6-12.9 55.5-2.6l164.8 95c5.6 3.3 11.6 5 17.6 6l-10.6 10.4c-48 47.4-48 124.1 0 171.5 21.7 21.4 49.5 33.2 77.9 35.2zM955 349c-14.8 12-31.7-3.4-31.7-3.4L671.6 113.9l-101.1 80.4c-15.8 14.2-28.8 7.7-34.4 3.5-16.9-12.5-3.4-33.2-3.4-33.2l113.4-153c23.9-27.8 44.1-0.3 44.1-0.3L953 319c11.5 16.1 6.4 26.4 2 30z"  horiz-adv-x="1024" />

    
    <glyph glyph-name="huadong-you" unicode="&#59008;" d="M354.4 538.1h96.2v-308.9h-96.2zM254.2 538.1h57.3v-308.9h-57.3zM159.1 538.1h57.3v-308.9h-57.3zM64 538.1h57.3v-308.9H64zM627.7 69L960 392.2 627.7 699v-158.9H495.6v-313h132.1z"  horiz-adv-x="1024" />

    
    <glyph glyph-name="huadong-zuo" unicode="&#59009;" d="M573.4 538.8h96.2v-308.9h-96.2zM712.5 538.8h57.3v-308.9h-57.3zM807.6 538.8h57.3v-308.9h-57.3zM902.7 538.8H960v-308.9h-57.3zM396.3 699L64 375.8 396.3 69V227.9h132.1v313H396.3z"  horiz-adv-x="1024" />

    
    <glyph glyph-name="xunbijia" unicode="&#59010;" d="M512 832C264.6 832 64 631.4 64 384s200.6-448 448-448 448 200.6 448 448S759.4 832 512 832z m23.7-381.5h176.5v-46.2H535.7v-84.1h176.5V274H535.7v-183.8h-47.4V273.9H311.6v46.2h176.7v84.1H311.6v46.2h177l-187 186.9 0.2 0.2h53L512 480.4l157.2 157.2h53l0.2-0.2-187-186.9h0.3z m0 0"  horiz-adv-x="1024" />

    
    <glyph glyph-name="tanpan" unicode="&#59012;" d="M804.6 489.7c-0.6-8.2-1.5-16.8-2.8-25.8-21.8-148.4-141.2-256.2-284-256.2h-46.5l-8.5-8.8c32-58.7 91.6-97 158.7-97h46.2l91.4-94.1c5.9-6.1 13.9-9.3 22.1-9.3 3.8 0 7.7 0.7 11.4 2.2 11.6 4.6 19.2 15.7 19.2 28v76.9C897 123 960 201.9 960 297.1c0 97.4-67.6 178.1-155.4 192.6z m-46.4-19.5c2.1 14.6 3.1 27.7 3.1 40.1 0 142.9-109.2 259.2-243.5 259.2H307.5C173.2 769.5 64 653.2 64 510.3 64 382 150 276.2 265.2 255v-109.3c0-14.4 8.9-27.3 22.4-32.6 4.3-1.7 8.8-2.5 13.3-2.5 9.6 0 18.9 3.8 25.7 10.8l126 129.7h65.3c120.6 0 221.7 92.1 240.3 219.1zM239.8 590.4H582c9.6 0 17.4-8.1 17.4-18.1 0-10-7.8-18.1-17.4-18.1H239.8c-9.6 0-17.4 8.1-17.4 18.1 0 10 7.8 18.1 17.4 18.1z m205.5-167.9H239.8c-9.6 0-17.4 8.1-17.4 18.1 0 10 7.8 18.1 17.4 18.1h205.5c9.6 0 17.4-8.1 17.4-18.1-0.1-10-7.9-18.1-17.4-18.1z m0 0"  horiz-adv-x="1024" />

    
    <glyph glyph-name="quanyi" unicode="&#59013;" d="M199.3 201.7l-83.9-136.8c-4.2-8.5 0-19.3 10.5-19.3l113.3-6.5c4.2 0 6.3-2.1 8.4-4.3l69.3-94.1c6.3-6.5 16.8-6.5 21 0l79.7 134.7c4.2 6.5 2.1 12.8-4.2 17.1L216.2 206c-6.4 2.2-12.7 0-16.9-4.3z m625.4 2.2l83.9-136.8c4.2-8.5 0-19.3-10.5-19.3l-113.3-6.5c-4.2 0-6.3-2.1-8.4-4.3l-69.3-94c-6.3-6.4-16.8-6.4-21 0l-79.7 134.7c-4.2 6.4-2.1 12.8 4.2 17.1l197.3 113.3c6.3 4.4 12.6 2.2 16.8-4.2zM807.8 670L541.4 824c-18.9 10.7-44.1 10.7-63 0L214 672.1c-18.9-10.7-31.4-32.1-31.4-53.5v-305.8c0-21.4 12.6-42.7 31.4-53.5l266.4-153.9c18.9-10.7 44.1-10.7 63 0l264.4 149.7c18.9 10.7 31.4 32.1 31.4 53.5V614.5c0.2 23.4-12.5 44.8-31.4 55.5zM681.9 539.6L526.7 310.8c-4.2-6.5-12.6-10.7-21-10.7s-16.8 4.3-21 10.7l-149 228.7c-8.4 10.7-4.2 27.8 6.3 34.2 10.5 6.5 27.3 4.3 33.6-6.4l128-196.7L638 569.5c8.4 10.7 23.1 15 33.6 6.5 16.6-10.7 18.8-25.7 10.3-36.4z m0 0"  horiz-adv-x="1024" />

    
    <glyph glyph-name="fabujingzhengxingtanpan" unicode="&#59014;" d="M348.3 195.7c21.9-3.6 71.2-7.2 94-7.2 201 0 335.8 149.6 335.8 325.5 0 176-168.8 317.9-335.8 317.9-201.5 0-364-142.4-364-318.4 0-101.6 39-188.5 111.9-250.8v-158.5l158.1 91.5zM134.3 510c0 146.9 133 266 307.6 266 139.3 0 279.9-119.1 279.9-266S612.1 244 441.9 244c-25.1 0-77 2.7-100.3 7.6L246.2 188v99c-68 56-111.9 129.9-111.9 223z m698.5 66.3c0.4-8.1 1.3-16.1 1.3-24.2 0-17.9-1.8-35.4-4-52.4 37.6-43.9 60-98.5 60-157.6 0-93.1-55.5-175.1-139.7-222.5v-99l-95.8 63.6c-23.3-4.9-47.5-7.6-72.5-7.6-72.5 0-111 21.9-163.4 57.8-15.2-1.3-30.5-2.2-46.1-2.2-11.2 0-21.9 0.9-33.1 1.3 66.7-64.9 135.2-106.6 242.7-106.6 22.8 0 45.2 2.2 67.2 5.8L806-64V94.5c85.1 58.2 139.7 148.7 139.7 250.8 0.4 91.3-43.5 172.8-112.9 231zM589.5 548.3h-323c-15.5 0-28 12.5-28 28s12.5 28 28 28h323c15.5 0 28-12.5 28-28 0-15.4-12.5-28-28-28zM455.9 412.4H266.5c-15.5 0-28 12.5-28 28s12.5 28 28 28h189.4c15.5 0 28-12.5 28-28 0-15.4-12.5-28-28-28z"  horiz-adv-x="1024" />

    
    <glyph glyph-name="fabuxunbijia" unicode="&#59015;" d="M674.2 298.1H555.3v50.8l125.3 1 2.6 0.4c11.7 3.8 19.6 14.6 19.6 26.9 0 15.5-12.6 28.1-28.1 28.1H555.3v28.6l127.9 126.6 1.6 2.3c1.4 2.8 2.4 7 2.7 10.9 0.5 7.5-1.9 14.8-7.1 20.7-9.2 10.2-29.7 11.4-40.3 1.7L527.5 485.3 407.8 602.7c-9.5 8.2-30.8 6.7-39.2-2.8-8.2-9.3-9.4-23.1-2.9-33.6l3.1-4.7 129.8-126.8v-29.7l-125.3-0.9-2.6-0.4c-11.7-3.8-19.6-14.6-19.6-26.8 0-12.2 7.9-23 19.7-26.8l3.4-1.1 124.2-0.3v-50.7l-125.3-0.9-2.4-0.4c-11.8-3.7-19.7-14.4-19.7-26.8 0-12.3 7.9-23.1 19.5-26.9l3.3-1.1 124.5-0.4 0.1-122.1 1.5-4.4c3.8-11.6 14.5-19.3 26.7-19.3 12.3 0 23 7.9 26.8 19.7l1.1 3.4 0.3 122.8 125.3 0.9 2.5 0.4c11.7 3.8 19.6 14.6 19.6 26.9 0.1 15.6-12.5 28.2-28 28.2z m0 0M512-64C264.6-64 64 136.6 64 384S264.6 832 512 832s448-200.6 448-448-200.6-448-448-448m0 851.7C289 787.7 108.3 607 108.3 384S289-19.7 512-19.7 915.7 161.1 915.7 384c0 223-180.7 403.7-403.7 403.7"  horiz-adv-x="1024" />

    
    <glyph glyph-name="yaoqingguanli" unicode="&#59016;" d="M921.9 433c-23.8 14.7-53 15.8-78 3.2l-27.2-13.8V730.6c0 39.3-32 71.3-71.3 71.3H270.2c-39.3 0-71.3-32-71.3-71.3v-303.9l-18.9 9.5c-25 12.6-54.1 11.5-78-3.2-23.8-14.7-38-40.1-38-68.1v-318.8c0-44.1 35.8-79.9 79.9-79.9h736.2c44 0 79.9 35.8 79.8 79.9V364.9c0.1 28-14.1 53.4-38 68.1zM236.6 730.6c0 18.5 15.1 33.6 33.6 33.6h475.4c18.5 0 33.6-15.1 33.6-33.6v-327.2l-248-125.6c-12-6-26.2-6-38.2 0L236.6 407.6v323z m685.8-684.5c0-23.3-18.9-42.2-42.2-42.2H143.9c-23.3 0-42.2 18.9-42.2 42.2V364.9c0 14.8 7.5 28.3 20.2 36 6.8 4.2 14.4 6.3 22.1 6.3 6.5 0 13-1.6 19.1-4.6l312.8-158.5c22.6-11.5 49.7-11.5 72.3 0L861 402.6c13.2 6.7 28.6 6 41.2-1.7 12.6-7.7 20.2-21.2 20.2-36v-318.8zM723.8 452.6c0 10.4-8.5 18.9-18.9 18.9h-394c-10.4 0-18.9-8.5-18.9-18.9 0-10.4 8.5-18.9 18.9-18.9h394c10.4 0 18.9 8.5 18.9 18.9zM310.9 580.1h394c10.4 0 18.9 8.5 18.9 18.9s-8.5 18.9-18.9 18.9h-394c-10.4 0-18.9-8.5-18.9-18.9s8.5-18.9 18.9-18.9z"  horiz-adv-x="1024" />

    
    <glyph glyph-name="zhaobiao" unicode="&#59017;" d="M512 832c-67.8 0-131.8-15.4-189.3-42.4l33.6-33.7c49.3 20.7 102.2 31.3 155.7 31.3 222.3 0 403.2-180.9 403.2-403.2 0-222.3-180.9-403.2-403.2-403.2S108.8 161.7 108.8 384c0 55.1 11.2 107.7 31.2 155.5l-33.6 33.8C78.5 514.1 64 449.5 64 384c0-118.8 47.2-232.8 131.2-316.8 84-84 198-131.2 316.8-131.2 247.4 0 448 200.6 448 448S759.4 832 512 832zM211.6 530.9c8.4-8.5 19.8-13.2 31.6-13.2h89.6c3.8 0 7.3 1.2 11 2.2l152.4-152.5c8.8-8.6 22.8-8.6 31.6 0 4.2 4.2 6.6 9.9 6.6 15.9s-2.4 11.7-6.6 15.9h-0.1L375.4 551.5c1 3.6 2.2 7 2.2 11v89.6c0 11.9-4.7 23.3-13.2 31.6L230 818.2c-12.8 12.8-32.1 16.7-48.8 9.7-16.7-6.9-27.6-23.2-27.6-41.3v-44.8h-44.8c-18.1-0.1-34.3-11-41.2-27.7-6.9-16.7-3.1-35.9 9.6-48.7l134.4-134.5z m-13.2 166v89.6l134.4-134.4v-89.6h-89.6L108.8 696.9h89.6zM286 458.6c-2.3 0-4.4 0.4-6.7 0.6-32.9-100.9 2.8-211.5 88.6-273.9 85.8-62.5 202-62.6 287.9-0.2 85.9 62.3 121.8 172.9 89.1 273.8C712.1 559.8 618.1 628.1 512 628.1c-26.5 0-52-4.4-76-12.1 0.3-2.3 0.7-4.4 0.7-6.7V576c24 9.5 49.5 14.4 75.3 14.4 114.3-0.2 207-92.8 207.1-207.1-0.1-114.3-92.8-207-207.1-207.1-114.3 0.1-207 92.8-207.1 207.1 0 26.5 5.2 51.9 14.4 75.3H286z"  horiz-adv-x="1024" />

    
    <glyph glyph-name="xlsx" unicode="&#59018;" d="M64 38l505.2-102V832L64 730v-692z m127.4 529.3h72.2l36.8-76.5 36.8 76.5h72.2l-72.2-153.1 90.6-192.9h-72.2l-53.8 114.8L248 221.4h-72.2l90.6 192.9-75 153zM609.3 717.8v-58.9H882v-38.1H609.3v-61.3H882v-38H609.3v-60.2H882v-37.9H609.3v-60.2H882v-38H609.3V265H882v-38.1H609.3v-60.1H882v-38.1H609.3v-78.5l350.7 0.1V717.8z"  horiz-adv-x="1024" />

    
    <glyph glyph-name="word" unicode="&#59019;" d="M611.2 715.9v-58.5h271.2v-37.7H611.2v-61.2h271.2v-37.7H611.2v-59.6h271.2v-37.7H611.2v-59.6h271.2v-37.7H611.2v-59.6h271.2v-37.7H611.2v-59.6h271.2v-37.7H611.2v-78.2H960V715.9H611.2zM64 736.6v-705.3l504.6-95.1V831.8L64 736.6z m365.7-505.2h-73.8l-47 208.9-59-208.9h-50.8l-73.3 307.3h72.7l29-191.4 48.1 211.1h76l41-230.8 43.7 230.7H509l-79.3-326.9z m0 0"  horiz-adv-x="1024" />

    
    <glyph glyph-name="pdf" unicode="&#59020;" d="M609.3 50.2v78.5H882v38.1H609.3V227H882v38H609.3v60.2H882v38.1H609.3v60.2H882v38H609.3v60.2H882v38.1H609.3v61.3H882v38.1H609.3v59H960v-667.5l-350.7-0.5zM64 272.8v464L569.2 832v-896L64 31.3V272.8z m35.7-92.6c2.5-5.3 11.2-25.2 31.2-12.3 29.7 30.7 55.5 66.4 74.6 113.9 49.8 13.9 98.7 24.7 153.5 40.1 15.5-3.6 84.1-47.8 153.8-35.1 9.4 2.2 9 7.2 8.3 12.8-36.4 11-66 2.1-110.6 24.1-5.7 1.6-4.5 1.5-7.5 3.2-2.1 1.6-3 2.7 0.4 4 46 1.5 87.8-1 122-9.8-32.3 61.8-97.9 15.2-151.8 29.1-71 18.3-109 127.6-87.4 196.5-6-13.8-8.5-29.1-11.8-43.4-2.2-6.1-3.7-7-4.8-4.3-8.9 41.6-17.8 87.6-6.6 116.9 2.2 1.6 8.2 3.4 9.9 1.6 8.4-9.4 10.8-13.9 13.2-36.2 3.4-9.3 5.8-5 6.7 4.8 1.2 13-2.8 25.3-9.1 36.6-4.6 8.4-13.1 9.5-24.2 5.4-5.6-2.1-9.2-6.8-13-15-11.2-58 13.6-106.2 6.5-157.6-10.1-72.6-95.8-248.8-139.6-275.3 8.2 44.3 35.3 55.9 55.5 87-29.6-14.7-57.6-36.2-67.9-69.8-3.8-12-3-12.6-1.3-17.2z m0 0"  horiz-adv-x="1024" />

    
    <glyph glyph-name="yuanxingxuanze" unicode="&#59021;" d="M512 832C264.6 832 64 631.4 64 384s200.6-448 448-448 448 200.6 448 448S759.4 832 512 832z m248.1-278.6L448.4 188.5s-23.9-32.7-52.3 0.3L261.6 370.3s-16 24.6 4.1 39.3c6.7 5 22 12.7 40.8-4.1l119.9-95.4L725 584.9s20 18.3 37.5 4c5.2-4.3 11.2-16.5-2.4-35.5z"  horiz-adv-x="1024" />

    
    <glyph glyph-name="ling" unicode="&#59022;" d="M879.9 203.7l-74.6 93.6v175c0 79.9-28.8 153.9-81.1 208.5-30.9 32.3-68.1 56.1-110.6 71-3.9 21.4-15.1 41-31.9 55.6-38.1 33-101.2 33-139.2 0-17.1-14.7-28.3-34.3-32.2-55.6-42.4-14.7-79.6-38.5-110.6-70.9-52.2-54.7-81.1-128.7-81.1-208.5l0.2-174.6-74-93c-10.5-10.6-16.2-24.3-16.2-38.7v-45.6c0-31.2 26.7-56.5 59.5-56.5h647.8c32.8 0 59.4 25.3 59.4 56.5v45.6c0 14.2-5.7 28-15.4 37.6zM543.7 766.4c-8.8 0.7-22.9 2.1-31.6 2.1-8.7 0-23.4-1.3-32.2-2.1 14.7 22.9 52.7 18.6 63.8 0zM189 120.4l-0.1 45.2 74 93c10.3 10.6 16.1 24.3 16.1 38.7v175c0 65.5 23.3 125.9 65.4 170.1 20.9 21.8 45.6 38.7 73.2 50.4 58 24.5 131.2 24.5 189.1 0 27.7-11.8 52.3-28.7 73.1-50.4 42.2-44.1 65.4-104.5 65.4-170.1v-174.9c0-14.5 5.7-28.3 15.4-37.8l74.7-93.6 0.6-44.9-646.9-0.7z m397.1-80.8c-4.5-9.9-11-18.9-19.6-26.3-29.8-25.8-79.2-25.8-108.9 0-8.6 7.5-15.2 16.5-19.7 26.3H375c6.4-26.2 20.9-50.1 42.1-68.5 25.9-22.6 59.6-35.1 95.1-35.1 35.3 0 69.1 12.4 94.8 35 21.1 18.3 35.7 42.3 42.1 68.5l-63 0.1z m0 0"  horiz-adv-x="1024" />

    
    <glyph glyph-name="vip" unicode="&#59023;" d="M874.2 634.4l-325 187.9c-23.1 13-53.8 13-76.8 0L149.8 637c-23.1-13-38.4-39.1-38.4-65.2v-373c0-26.1 15.4-52.1 38.4-65.2l325-187.8c23.1-13 53.8-13 76.8 0l322.5 182.6c23.1 13 38.4 39.1 38.4 65.2v373c0.2 28.7-15.3 54.8-38.3 67.8z m-156.9-127c-14.5-78.9-66.1-150.8-106.8-197.1-50.8-57.8-102.3-97-122.5-109.7-5.6-3.5-10.7-5.2-15.8-5.2-16.5 0-35.5 18.5-44.4 36.4v0.1c-7.5 14.9-25.7 72.8-40.4 119.3-33.7 106.9-43.7 135.5-55.2 148.7-7.2 8.2-16.7 13.7-27.5 16 46.1 40.5 73.1 50.4 85.2 52.7 1.6 0.3 3 0.4 4.2 0.4 2.3 0 3.4-0.4 5.1-2 1.9-1.7 5.8-6.2 10.2-16.7 8.5-20.5 13.6-49.9 18.5-78.4 3.3-19 6.3-37 10.6-53.4 20.3-78.7 33.7-130.6 78.4-130.6 25.3 0 45.1 20.9 59.5 39.1 14.2 17.9 29.8 42.3 46.5 72.5 19.9 35.9 21.9 74 5.5 101.8-9 15.2-22.6 25.9-38.9 31.1 5.6 6.3 11.4 11.4 16.7 15.5 20.2 15.4 45.6 24.6 68 24.6 9.4 0 26.6-1.7 36.4-13.4 10.9-13.2 9.7-35.4 6.7-51.7z"  horiz-adv-x="1024" />

    
    <glyph glyph-name="shouhou" unicode="&#59024;" d="M960 543.6c0 135.6-109.9 245.6-245.6 245.6-78.1 0-147.6-36.6-192.6-93.4l-1.3-0.6c-41.6 41.5-88.7 65.8-131.8 80.1 0.2 0.1 0.4 0.3 0.6 0.4-25 8.6-51.7 13.5-79.7 13.5C174 789.2 64 679.3 64 543.6c0-25 3.8-49.1 10.8-71.9 0 0.1 0.1 0.1 0.2 0.2 19.5-69.9 59.5-113.8 72-124.6l56.2-53.8-3.3-3.4c-15.9-16.3-15.6-42.5 0.7-58.4 16.3-15.9 42.4-15.6 58.4 0.7l3.4 3.4c0.4 0.3 0.9 0.5 1.4 0.5 0.6 0 1.2-0.2 1.6-0.7 0.4-0.4 0.7-1 0.7-1.6 0-0.5-0.2-1-0.5-1.4l-3.3-3.4c-16-16.3-15.6-42.5 0.7-58.4 16.3-15.9 42.4-15.6 58.4 0.7l3.2 3.2c0.4 0.5 1 0.8 1.7 0.8 1.3 0 2.3-1 2.3-2.2 0-0.5-0.2-1-0.6-1.4v0.1l-0.1-0.1-3.1-3.2c-15.9-16.3-15.6-42.5 0.7-58.4 16.3-15.9 42.5-15.6 58.4 0.7l3.4 3.5 0.1-0.1c0.4 0.3 0.9 0.5 1.4 0.5 0.6 0 1.2-0.2 1.6-0.7 0.4-0.4 0.7-1 0.7-1.6 0-0.5-0.2-0.9-0.5-1.3l-0.2-0.2-0.1-0.1-3-3.1c-15.9-16.3-15.6-42.5 0.7-58.4 16.3-15.9 42.5-15.6 58.4 0.7l3.9 4-1.1-1.4 54.9-52.3c14.8-14.1 34.1-21.8 54.4-21.8h1.1c21.5 0.3 41.5 9 56.3 24.6 14.4 15.1 22.1 35.7 21.4 57 0.9 0 1.8-0.1 2.8 0 21.5 0.3 41.4 9 56.2 24.6 14.3 15.1 21.9 34.7 21.5 55.7 1 0 2.2-0.1 3.2-0.1 21.5 0.3 41.5 9 56.3 24.6 14.4 15.2 22.1 35.7 21.4 57 0.9 0 2-0.1 2.8-0.1 21.5 0.3 41.5 9 56.3 24.6 27.2 28.5 28.7 72.3 5.2 102.8 57.1 45.1 97 115.9 97 194.2zM825.7 277.2c-6.3-6.7-15.6-10.5-25.4-10.5-9.2 0-17.7 3.3-24 9.2L718.5 330c-3.7 2.7-8.2 4.4-13.1 4.4-12.3 0-22.3-10-22.3-22.3 0-7.1 3.4-13.4 8.6-17.5L744 245c13.9-13.3 14.5-35.4 1.2-49.4-6.3-6.7-15.6-10.5-25.4-10.5-9.2 0-17.7 3.3-24 9.3L640 248.1v-0.1c-4 3.6-9.2 5.9-15 5.9-12.3 0-22.3-10-22.3-22.3 0-5.9 2.4-11.3 6.2-15.3l-0.1-0.1 54.3-51.6c13.8-13.3 14.3-35.4 1.1-49.3-6.3-6.6-15.6-10.5-25.4-10.5-9.2 0-17.7 3.3-24 9.2l-55.2 52.1c-4 4.1-9.6 6.7-15.8 6.7-12.3 0-22.3-10-22.3-22.3 0-6.5 2.8-12.3 7.3-16.3l53.6-51c13.9-13.3 14.5-35.5 1.3-49.4-6.3-6.7-15.6-10.5-25.4-10.5-9.2 0-17.7 3.3-24 9.3l-54.6 52 3.3 3.3c15.9 16.3 15.6 42.5-0.7 58.4-16.3 15.9-42.4 15.6-58.4-0.7l-1.9-1.9-0.1 0.1c-0.4-0.5-1-0.8-1.7-0.8-0.6 0-1.2 0.2-1.6 0.7-0.4 0.4-0.7 1-0.6 1.6 0 0.7 0.3 1.3 0.8 1.7l1.7 1.7c15.9 16.3 15.6 42.5-0.7 58.4-16.3 16-42.4 15.6-58.4-0.7l-2-2c-0.4-0.3-0.8-0.5-1.4-0.5-0.6 0-1.2 0.2-1.6 0.7-0.4 0.4-0.7 1-0.7 1.6 0 0.5 0.2 1 0.5 1.3l0.2 0.2s0 0.1 0.1 0.1l1.6 1.7c15.9 16.3 15.6 42.5-0.7 58.4-16.3 15.9-42.4 15.6-58.4-0.7l-2.1-2c-0.4-0.5-1-0.9-1.8-0.9-1.2 0-2.2 1-2.2 2.2 0 0.7 0.3 1.3 0.9 1.7l2 2c15.9 16.3 15.6 42.5-0.7 58.4-16.3 15.9-42.4 15.6-58.4-0.7l-2.1-2.2-57.6 55.7c-0.6 0.5-42.8 37.6-62.3 118.1 0.2 0.1 0.3 0.1 0.4 0.2-3.2 14.2-5 28.8-5 43.9 0 110 89.5 199.5 199.5 199.5 16.4 0 32.2-2.2 47.5-6 39.1-10.7 83.7-30.4 123.1-66.4l-203.1-201c-8.2-7.8-13.5-18.7-13.5-30.9 0-23.5 19.1-42.6 42.6-42.6 1.2 0 2.3 0.3 3.5 0.4 0-0.1 0.1-0.1 0.1-0.2 0.9 0.1 1.8 0.3 2.8 0.5 1.1 0.2 2.2 0.3 3.3 0.6 33.8 6.7 97.5 74.5 155.5 110.9 32.7 20.2 52.2 26.6 88.1 26.6 29.9 0 57.1-11.3 77.7-29.8 2.5-1.8 5.1-4.1 8-6.9l124.1-119.2v-0.1l54-51.7c14-13.5 15.7-36.2 2.4-50.1z m0 0"  horiz-adv-x="1024" />

    
    <glyph glyph-name="android" unicode="&#59025;" d="M264.8 173c0-15.7 6.2-30.8 17.3-42 11.1-11.1 26.2-17.4 42-17.3H364l0.6-122.3c-0.1-30.5 24.5-55.3 54.9-55.5 30.7 0 55.5 24.7 55.5 55.5V113.7h74.3v-122.3c0-30.7 24.8-55.5 55.5-55.5s55.5 24.7 55.5 55.5V113.7h40.4c32.3 0 58.7 26.4 58.7 59.3V531.8H264.8V173zM188.2 542c-30.7 0-55.5-24.8-55.5-55v-231.6c0-30.7 24.8-55.5 55.5-55.5s55 24.8 55 55.5V487c-0.1 30.3-24.6 54.9-55 55zM634.3 749.9l38.3 70.6c1.1 1.8 1.4 3.9 0.9 6-0.5 2-1.8 3.8-3.6 4.8-3.8 1.6-8.6 0.5-10.8-3.2L620.3 757c-32.9 14.5-69.5 22.6-108.3 22.6s-75.4-8.1-108.3-22.6L365 828c-2.2 3.8-7 4.9-10.8 3.2-1.8-1.1-3.1-2.8-3.6-4.8s-0.2-4.2 0.9-6l38.2-70.6C313.8 711 262.6 636.7 262.6 551h498.3c0 85.8-51.2 160.1-126.6 198.9z m-236-108.8c-11.3 0-20.5 9.7-20.5 21s9.2 21 20.5 21c11.1-0.6 19.8-9.8 19.8-21 0.1-11.1-8.6-20.4-19.8-21z m227.4 0c-11.1 0.6-19.8 9.9-19.8 21s8.7 20.4 19.8 21c11.3 0 20.5-9.7 20.5-21-0.1-11.3-9.2-21-20.5-21zM835.8 542c-14.6 0-28.6-5.7-38.9-16.1a55.025 55.025 0 0 1-16.1-38.9v-231.6c-0.1-30.5 24.5-55.3 55-55.5 30.7 0 55.5 24.8 55.5 55.5V487c-0.1 30.8-24.8 55-55.5 55z"  horiz-adv-x="1024" />

    
    <glyph glyph-name="ios" unicode="&#59026;" d="M798.6 242.5c24.6-34.9 52.9-57.4 84.7-67.6-13.8-42.7-35.8-87.1-65.8-133.4-46.3-69.7-91.9-104.6-137-104.6-16.8 0-41.8 5.7-74.8 17.1-30.6 11.4-57.4 17.1-80.2 17.1-22.8 0-48.1-6-75.7-18-28.8-11.4-52.6-17.1-71.2-17.1-54.1 0-107.3 46-159.6 137.9-52.3 90.7-78.4 180-78.4 267.7 0 81.1 19.8 147.5 59.5 199.2 40.9 51.7 91.3 77.5 151.4 77.5 13.2 0 27.9-1.7 44.2-5 16.2-3.3 33.1-9.5 50.5-18.5 18.6-10.2 34-17.3 46-21.2 12-3.9 21.3-5.9 27.9-5.9 7.8 0 19.8 1.8 36.1 5.4 16.2 3.6 32.4 10.2 48.7 19.8 17.4 9.6 32.5 16.8 45.1 21.6 12.6 4.8 25.5 7.2 38.8 7.2 42.1 0 79.9-11.4 113.6-34.3 18-12 36.4-29.7 55-53.2-27.6-24-47.8-45.1-60.4-63.1-23.4-33.7-35.2-70.3-35.2-110-0.1-43.5 12.2-83.2 36.8-118.6zM617.5 663.4c-21-19.8-40.3-32.7-57.7-38.8-6-1.8-13.7-3.5-23-5s-20-2.9-32-4.1c0.6 52.9 14.4 98.6 41.5 137 27 38.5 71.5 64.9 133.4 79.3 1.2-6 2.1-10.2 2.7-12.6v-9.9c0-21.6-5.1-46-15.3-73-10.9-26.3-27.4-50.6-49.6-72.9z m0 0"  horiz-adv-x="1024" />

    
    <glyph glyph-name="lingdang" unicode="&#59027;" d="M512-64c49.6 0 88 38.4 88 88H424c0-49.6 38.4-88 88-88zM800.7 222.3V451c0 137.6-97.6 252.7-224.7 283.1v28.8c0 32-17.6 60.8-48 67.2-44 10.4-80-23.2-80-66.4v-30.4C320.9 703.7 223.3 588.6 223.3 451v-228.7l-87.2-89.6v-44.8h751.7v44.8l-87.1 89.6z"  horiz-adv-x="1024" />

    
    <glyph glyph-name="zhinanzhen" unicode="&#59028;" d="M512 452.6c-36.6 0-68.6-29.7-68.6-68.6 0-36.6 29.7-68.6 68.6-68.6 38.9 0 68.6 29.7 68.6 68.6 0 36.6-29.8 68.6-68.6 68.6zM512 832C265.1 832 64 630.9 64 384c0-246.8 201.1-448 448-448 246.8 0 448 201.1 448 448 2.3 246.9-198.9 448-448 448z m203.4-267.4L624 285.7c-2.3-6.9-9.1-13.7-16-16l-278.9-91.4c-6.9-2.3-16-2.3-18.3 2.3-4.6 4.6-6.9 11.4-2.3 18.3L400 477.7c2.3 6.9 9.1 13.7 16 16l278.9 91.4c6.9 2.3 16 2.3 18.3-2.3 4.5-4.5 6.8-11.4 2.2-18.2z"  horiz-adv-x="1024" />

    
    <glyph glyph-name="erweima" unicode="&#59029;" d="M389 832H123c-32.6 0-59-26.4-59-59v-266c0-32.6 26.4-59 59-59h266c32.6 0 59 26.4 59 59V773c0 32.6-26.4 59-59 59z m-69-221.3c0-19.2-15.5-34.7-34.7-34.7h-59.2c-19.2 0-34.7 15.5-34.7 34.7v59.2c0 19.2 15.5 34.7 34.7 34.7h59.2c19.2 0 34.7-15.5 34.7-34.7v-59.2zM389 320H123c-32.6 0-59-26.4-59-59v-266c0-32.6 26.4-59 59-59h266c32.6 0 59 26.4 59 59V261c0 32.6-26.4 59-59 59z m-69-221.3c0-19.2-15.5-34.7-34.7-34.7h-59.2c-19.2 0-34.7 15.5-34.7 34.7v59.2c0 19.2 15.5 34.7 34.7 34.7h59.2c19.2 0 34.7-15.5 34.7-34.7v-59.2zM900.7 832H634.8c-32.6 0-59-26.4-59-59v-266c0-32.6 26.4-59 59-59h265.9c32.6 0 59 26.4 59 59V773c0 32.6-26.4 59-59 59z m-69-221.3c0-19.2-15.5-34.7-34.7-34.7h-59.2c-19.2 0-34.7 15.5-34.7 34.7v59.2c0 19.2 15.5 34.7 34.7 34.7H797c19.2 0 34.7-15.5 34.7-34.7v-59.2zM831.7 128v-52.6c0-6.3-5.1-11.4-11.4-11.4h-52.6v-128h151.9c22.1 0 40.1 17.9 40.1 40.1V128h-128zM576 64h127.4v-127.4H576zM833.4 320H960v-126.6H833.4zM576 320h191.7v-191.7H576z"  horiz-adv-x="1024" />

    
    <glyph glyph-name="fankui" unicode="&#59030;" d="M512 832C269 832 72.2 652.3 72.2 430.6c0-173 120.3-320.1 288.7-376.4h-3.7c1.8-0.3 3.7-0.3 5.5-0.6 12.2-4 24.4-7.6 37.2-10.7 9.7-8.8 21-24.4 32-40.2 22.8-32.9 46.6-66.7 76.7-66.7h0.9c29.5 0.6 51.2 34.4 72.2 67 8.8 13.4 17.4 27.1 25.6 36.2C804.1 79.1 951.5 239 951.8 430.6 951.8 652.3 754.7 832 512 832zM283.6 356.9c-32.8 0-59.4 28.5-59.4 63.7s26.6 63.7 59.4 63.7 59.4-28.5 59.4-63.7-26.6-63.7-59.4-63.7z m228.4 0c-32.8 0-59.4 28.5-59.4 63.7s26.6 63.7 59.4 63.7 59.4-28.5 59.4-63.7-26.6-63.7-59.4-63.7z m228.4 0c-32.8 0-59.4 28.5-59.4 63.7s26.6 63.7 59.4 63.7 59.4-28.5 59.4-63.7-26.6-63.7-59.4-63.7z"  horiz-adv-x="1024" />

    
    <glyph glyph-name="kefu1" unicode="&#59031;" d="M762.1 245.5c-65.8-60.3-154.5-96.9-251.4-96.9s-185.6 36.6-251.4 96.9C141.3 185.6 64 80 64-63.5h896c0 144-78.6 249.6-197.9 309zM219.4 376.2V603.9c-3.2 0-6.4 0-9.6-0.5 51.7 112 166.9 190.2 300.8 190.2s249.1-78.2 300.8-190.2c-3.2 0.5-6.4 0.5-9.6 0.5v-228.1c64.5 0 116.6 51.2 116.6 113.8 0 42.5-24.2 80-59.4 99.7C808.7 730.5 672 831.5 511.1 831.5 349.7 831.5 213 730 163.2 589.2c-35.7-19.7-59.4-56.7-59.4-99.7-0.9-62.5 51.2-113.3 115.6-113.3zM510.6 717.7c-139.4 0-252.3-110.6-252.3-246.9 0-136.2 112.9-246.9 252.3-246.9C650.1 224 763 334.6 763 470.9c-0.5 136.2-113.4 246.8-252.4 246.8z m1.4-389.5c-42.1 0-76.3 25.1-76.3 56.2h152.7c-0.1-31-34.3-56.2-76.4-56.2z"  horiz-adv-x="1024" />

    
    <glyph glyph-name="huidaodingbu" unicode="&#59032;" d="M343.8 104c0-92.7 75.2-167.9 167.9-167.9S679.6 11.3 679.6 104s-75.2 167.9-167.9 167.9c-92.8 0-167.9-75.1-167.9-167.9z m0 0M327 216h-95.1v-279.8h-72.7V216H64v56h263v-56z m0 0M836.2 271.9H718.7v-335.7h72.7V53.7H825c39.2 0 67.2 5.6 95.1 28 28 22.4 39.2 50.4 39.2 83.9 0 72.7-39.2 106.3-123.1 106.3zM825 109.6h-33.6v112H825c39.2 0 61.6-22.4 61.6-56 0-39.2-16.8-56-61.6-56zM111.8 364l420 420c10.9 10.9 10.9 28.6 0 39.6-10.9 10.9-28.6 10.9-39.6 0l-420-420c-10.9-10.9-10.9-28.6 0-39.6 11-10.9 28.7-10.9 39.6 0zM912.2 364l-420 420c-10.9 10.9-10.9 28.6 0 39.6 10.9 10.9 28.6 10.9 39.6 0l420-420c10.9-10.9 10.9-28.6 0-39.6-10.9-10.9-28.6-10.9-39.6 0z"  horiz-adv-x="1024" />

    
    <glyph glyph-name="shuaxin" unicode="&#59033;" d="M933.9 580.3L782.1 818.9c-5.4 8.5-15 13.4-25.1 13-10.1-0.4-19.2-6.2-23.9-15.2L698.3 750l-5.5-10.6-3-5.7c-55.6 27.1-118 42.4-184.1 42.4-232 0-420-188-420-420s188-420 420-420c194.6 0 358.3 132.4 406 312 5.7 21.8-7.3 44.2-29.1 49.9-21.8 5.7-44.2-7.3-49.9-29.1-38.5-144.6-170.3-251.1-327-251.1-186.9 0-338.3 151.5-338.3 338.3 0 186.9 151.5 338.3 338.3 338.3 52.4 0 102-11.9 146.3-33.2l-3.7-7.2-2.8-5.3-39.9-76.4c-4.9-5.2-7.6-12.1-7.5-19.2 0-15.8 15.8-28 28.8-28.3H628.7l282.5 12.1c10.1 0.4 19.2 6.2 23.8 15.2 4.8 8.9 4.3 19.7-1.1 28.2z"  horiz-adv-x="1024" />

    
    <glyph glyph-name="yonghu" unicode="&#59034;" d="M788.5 236.1c-8.5 8.5-22.2 8.5-30.7 0s-8.5-22.4 0-30.9c65.7-66.1 101.8-153.9 101.8-247.3 0-12.1 9.7-21.9 21.7-21.9s21.7 9.8 21.7 21.9c0 105.1-40.7 203.9-114.5 278.2zM512 832c-143.7 0-260.7-117.7-260.7-262.4 0-103.2 59.5-192.6 145.8-235.5-60.4-18.6-115.7-51.9-161.6-98.1C161.6 161.8 121 63 121-42.1c0-12.1 9.7-21.9 21.7-21.9s21.7 9.8 21.7 21.9c0 93.4 36.2 181.3 101.8 247.3C329.5 268.9 412.9 305 502 307.5c3.3-0.1 6.6-0.2 10-0.2 143.7 0 260.7 117.7 260.7 262.4C772.7 714.3 655.7 832 512 832z m3.5-480.9c-1.2 0.2-2.4 0.3-3.6 0.3-3.3 0-6.6 0-9.9-0.1-115.2 5.2-207.3 101.2-207.3 218.4 0 120.5 97.5 218.6 217.2 218.6s217.2-98.1 217.2-218.6c0.1-119.4-95.4-216.7-213.6-218.6z m0 0"  horiz-adv-x="1024" />

    
    <glyph glyph-name="gongsi" unicode="&#59035;" d="M565.7-63.7H81.3c-9.7 0.8-17.2 8.9-17.2 18.7V738.7c0 50.7 40.4 92.1 91.1 93.3h335.9c25.1 0.6 49.4-9 67.4-26.5 18-17.6 28.1-41.6 28.1-66.8v-783.8c0.3-5.4-1.9-10.7-6-14.4-4-3.6-9.5-5.2-14.9-4.2zM99.2-26.4h447.9V738.7c0 30.9-25.1 56-56 56H155.2c-30.9 0-56-25.1-56-56v-765.1zM827 178.8H661.3c-10.3 0-18.7 8.4-18.7 18.7 0 10.3 8.4 18.7 18.7 18.7h167.9c10.5 0 19-8.5 19-19s-8.5-19-19-19l-2.2 0.6z m0 139.6H661.3c-10.5 0-19 8.5-19 19s8.5 19 19 19h167.9c10.5 0 19-8.5 19-19s-8.5-19-19-19H827z m0 140.4H661.3c-10.5 0-19 8.5-19 19s8.5 19 19 19h167.9c10.5 0 19-8.5 19-19s-8.5-19-19-19H827z m-409.8-37.4H229.8c-9.4 1.1-16.5 9.2-16.4 18.7-0.1 9.5 7 17.5 16.4 18.7h186.6c5.3 0.6 10.7-1 14.7-4.6 4-3.6 6.3-8.7 6.2-14.1-0.2-5.1-2.4-10-6.2-13.5-3.7-3.5-8.7-5.4-13.9-5.2z m0 168H229.8c-9.4 1.1-16.5 9.2-16.4 18.7 0 10.3 8.4 18.7 18.7 18.7h186.6c10.3 0 18.7-8.4 18.7-18.7-0.2-5.1-2.4-10-6.2-13.5-3.8-3.6-8.8-5.4-14-5.2z m20.2-634.5H400V198.3c0 10.3-8.4 18.7-18.7 18.7H267.2c-10.3 0-18.7-8.4-18.7-18.7v-242.6h-35.1V198.3c0 30.9 25.1 56 56 56h112c30.9 0 56-25.1 56-56v-243.4zM939-63.7H565.7v37.3h354.6V542.4c0 30.9-25.1 56-56 56H565.7v37.3h298.6c25.1 0.6 49.4-9 67.4-26.5 18-17.6 28.1-41.6 28.1-66.8V-45c-0.2-5.3-2.5-10.3-6.5-13.8-3.9-3.6-9.1-5.4-14.3-4.9z m0 0"  horiz-adv-x="1024" />

    
    <glyph glyph-name="zuojiantou-xi" unicode="&#59036;" d="M281.4 407.1c-13.2-13.2-13.2-32.9 0-46.1l415.1-415.1c6.6-6.6 16.5-9.9 23.1-9.9 6.6 0 16.5 3.3 23.1 9.9 13.2 13.2 13.2 32.9 0 46.1l-392 392 392 392c13.2 13.2 13.2 32.9 0 46.1-13.2 13.2-32.9 13.2-46.1 0l-415.2-415z m415.1 415"  horiz-adv-x="1024" />

    
    <glyph glyph-name="youjiantou-xi" unicode="&#59037;" d="M327.5 822.1c-13.2 13.2-32.9 13.2-46.1 0-13.2-13.2-13.2-32.9 0-46.1l392-392-392-392c-13.2-13.2-13.2-32.9 0-46.1 6.6-6.6 16.5-9.9 23.1-9.9 6.6 0 16.5 3.3 23.1 9.9L742.7 361c13.2 13.2 13.2 32.9 0 46.1l-415.2 415z m0 0"  horiz-adv-x="1024" />

    
    <glyph glyph-name="sanfangzhifu" unicode="&#59038;" d="M901.3 675.4c0 5.6-5.6 16.9-11.3 16.9-5.6 0-16.9 5.6-22.6 5.6-39.5-5.6-73.4-5.6-112.8 0-39.5 11.3-84.6 28.2-124.1 50.8-45.1 28.2-79 56.4-101.6 79-5.6 5.6-28.2 5.6-33.9 0-22.6-22.6-56.4-50.8-101.6-79-39.5-22.6-84.6-39.5-124.1-50.8-39.5-11.3-79-11.3-112.9 0-5.6 0-16.9 0-22.6-5.6-5.6-5.6-11.3-11.3-11.3-16.9-5.6-56.4-16.9-158 11.3-276.6C179.1 178.7 303.2 26.3 500.7-64h22.6C726.4 26.3 850.6 184.3 890 398.8c28.3 118.5 17 220.1 11.3 276.6z m-45.9-263.8C814 204.3 701.5 56.3 512-26.6c-183.6 88.8-302 236.9-343.4 438.3-17.8 94.8-17.8 183.6-11.8 236.9 35.5-5.9 77 0 112.5 5.9 47.4 11.8 100.7 29.6 148 59.2 41.4 29.6 71 53.3 94.7 71.1 23.7-17.8 53.3-47.4 94.7-71.1 47.4-29.6 100.7-47.4 148-59.2 35.5-5.9 77-11.8 112.5-5.9 6-53.4 6-142.2-11.8-237z m0 0M477.1 441.9c-5.8 0-11.7 2.8-15.5 8.1l-45.9 62.5c-6.6 8.9-5.1 21.5 3.5 28.4 8.5 6.9 20.6 5.3 27.2-3.7l46.2-62.9c6.6-8.9 5.1-21.5-3.5-28.4-3.8-2.8-7.7-4-12-4z m95.6 0c-4.3 0-8.2 1.2-12 4.1-4.1 3.3-6.8 8.1-7.4 13.4-0.7 5.3 0.8 10.7 3.9 15l46.2 62.9c6.6 8.9 18.7 10.5 27.2 3.7 8.5-6.9 10.1-19.5 3.5-28.4L587.9 450c-3.5-5.2-9.3-8.1-15.2-8.1z m0 0M650.9 412.7H391.2c-10.9 0-19.4 8.9-19.4 20.3s8.5 20.3 19.4 20.3h259.6c10.9 0 19.4-8.9 19.4-20.3s-8.5-20.3-19.3-20.3z m0-123.3H391.2c-10.9 0-19.4 8.9-19.4 20.3s8.5 20.3 19.4 20.3h259.6c10.9 0 19.4-8.9 19.4-20.3 0.1-11.4-8.5-20.3-19.3-20.3z m0 0M521.1 153.4c-10.9 0-19.4 8.9-19.4 20.3V433c0 11.4 8.6 20.3 19.4 20.3 10.9 0 19.4-8.9 19.4-20.3v-259.3c0-11.3-8.6-20.3-19.4-20.3z m0 0"  horiz-adv-x="1024" />

    
    <glyph glyph-name="jingdong" unicode="&#59039;" d="M606.7 361.6s1.3-23.8 95.5-9.9c0 0-11.3-258.4 7.1-342.8 0 0-7.1-23.9-29.5 59.1-22.4 82.9-28.1 102.5-37.9 106.8-9.7 4.3-54.8-25.3-77.2-73.1-22.4-47.7-35.2-105.3-35.2-105.3s-14.9-11.3-15.2 7.1c-0.2 18.3 12.4 113.7 12.4 113.7s-25.9-66.9-30.4-101.9c-4.5-35.1-13.6-3.6-11.8 7.2 1.8 10.8 12.2 58.8-0.2 87.5 0 0-11.4 5.3-86.2-107.4 0 0-6.3-16.8-13.6-9.7-7.2 7.1 0.9 17.8 8.1 35.9 7.2 18 38.8 91.9 48.6 101 0 0-29.7-5.4-45.9 2.7-16.2 8.1-36.1 23.4-23.4 82.9 5 23.9 5.6 0.3 3.6-17.1-4.1-37 10.8-58.1 39-51.9 29.7 6.4 44.8 30.1 44.8 30.1l147.4 185.1z m349.8 369.5s-31.4-31.8-96.9-30.9c-30.4 0.3-49.4 2.1-53.3 14-6.1 18.7 45.9 46.3 111.1 42.6 0 0-57.7 30.4-238.9 16.4-181.4-14.2-428.6-125-428.6-125s1.5-9.9-22.4 7.1c-23.9 16.8-53.3 29.5-61.9 28.1-8.5-1.3-23.9 0-26.7-36.5L64 464.2s49.6-36.5 108.6-14c58.9 22.4 59.1 98.3 44.9 123.6 0 0 8.5 1.5 16.9-12.7 8.4-14 101-67.3 133.4-81.5 32.4-14 207.9-75.6 250-86.3 42.1-10.6 91.2-2.1 110.9 16.1 19.7 18.3 122.2 130.7 147.6 174.1 0 0-316.5-52-406.2-14 0 0-13.8-7.1-20.8-2.8-7.1 4.3 1.5 29.5 8.5 26.7 7.1-2.8 12.4-9.9 12.4-9.9s102.8-38 416 18.3c0 0.1 92.8 90 70.3 129.3z m-494.8-66.2c-17.5-2-17.7 27.2-10.4 45.3 5 12.4 31.7 17.3 31.2-3.4-0.8-26.2-4.4-40-20.8-41.9z m0 0"  horiz-adv-x="1024" />

    
    <glyph glyph-name="bangongyongpin" unicode="&#59040;" d="M890.7 406h-74.3c-11.6 0-21-10.2-21-22.1 0-11.8 9.4-22 21-22h14.2v-85.2H531V362h159.1c34.9 0 54.4 33.8 54.4 69.2V727c0 58.8-38.3 105-96.3 105H395.4c-58 0-120-46.2-120-105v-296c0-35.3 43-69.1 77.9-69.1h135.6v-85.2H189.3V362h28.2c11.6 0 21 10.2 21 22s-9.4 22.1-21 22.1h-84.2c-11.6 0-21-10.2-21-22.1 0-11.8 9.4-22 21-22h13.9v-165.9c0-23.5 26.1-46.6 49.2-46.6H489v-171.4h-87.4c-11.6 0-21-9.2-21-21s9.4-21 21-21h252.7c11.6 0 21 9.2 21 21s-9.4 21-21 21H531V149.5h306.5c23.3 0 36.3 23.2 36.3 46.6V362h16.9c11.6 0 21 10.2 21 22 0.1 11.8-9.3 22-21 22z m-539.8 0c-11.7 0-32.4 13.1-32.4 25V727c0 35.3 39.8 62.9 75.2 62.9h256.2c35.3 0 52.5-27.7 52.5-62.9v-295.9c0-11.8 1.9-25.1-9.9-25.1H350.9z m479.8-214.4H189.3v43.1h641.4v-43.1z"  horiz-adv-x="1024" />

    
    <glyph glyph-name="kuaijieruzhu" unicode="&#59041;" d="M188.2 793.3h647.6c10.5 0 19.1 8.6 19.1 19.3 0 10.7-8.5 19.3-19.1 19.3H188.2c-10.5 0-19.1-8.6-19.1-19.3 0-10.7 8.6-19.3 19.1-19.3zM866.5 368.6c-10.5 0-19.1-8.6-19.1-19.3v-316.7c0-31.9-44.3-57.9-75.9-57.9H274.9c-31.5 0-94.5 26-94.5 57.9V349.3c0 10.7-8.5 19.3-19.1 19.3-10.5 0-19.1-8.6-19.1-19.3v-316.7c0-53.2 80.1-96.5 132.7-96.5h496.7c52.6 0 114 43.3 114 96.5V349.3c0 10.6-8.5 19.3-19.1 19.3zM953 562.7l-56.3 156.5c-9.3 25.9-33.8 43.2-61 43.2H188.2c-27.2 0-51.7-17.4-61-43.2L71 562.7c-10.5-29.1-9.1-60.5 3.8-88.6 12.9-28 35.8-49.3 64.6-59.9 24.5-9 70.2-9.3 94.8-0.7 16.2 5.6 49.6 14.9 61.7 26.8 21.1-21 68.4-33.1 98.8-33.1 30.4 0 96.3 12 117.4 33.1 21.1-21 87-33.1 117.4-33.1s77.6 12.1 98.8 33.1c12.1-12 64.2-21.2 80.3-26.8 24.6-8.6 51.7-8.3 76.2 0.7 28.7 10.6 51.6 31.8 64.5 59.9 12.8 28 14.2 59.5 3.7 88.6z m-38.3-72.3c-8.6-18.7-23.9-32.9-43-39.9-16.6-6.1-34.1-6.3-50.8-0.5-16.2 5.6-67.5 16.7-76.7 31.1-3.5 5.5-9.5 8.8-16 8.8s-12.5-3.3-16-8.8c-14.1-22.1-56.8-35.3-82.7-35.3-26 0-87.3 13.2-101.4 35.3-3.5 5.5-9.5 8.8-16 8.8s-12.5-3.3-16-8.8c-14.1-22.1-75.4-35.3-101.4-35.3S326.1 459 312 481.1c-3.5 5.5-9.5 8.8-16 8.8s-12.5-3.3-16-8.8c-9.2-14.4-60.5-25.5-76.7-31.1-16.6-5.8-34.2-5.6-50.8 0.5-19.1 7.1-34.4 21.2-43 39.9-8.6 18.7-9.5 39.7-2.5 59L163.1 706c3.8 10.7 13.9 17.8 25.1 17.8h647.6c11.2 0 21.3-7.2 25.1-17.8l56.3-156.5c7-19.4 6.1-40.4-2.5-59.1zM603.3 166.5c-2.5 4.2-7.2 6.7-12.2 6.7h-43.5l50.4 78.1c2.7 4.2 2.9 9.5 0.4 13.9-2.5 4.3-7.3 7-12.4 7H479.5c-6.8 0-12.7-4.7-13.9-11.1l-28.4-145.2c-0.8-4 0.3-8.1 3-11.3 2.7-3.1 6.7-4.9 10.9-4.9h40.4L478-11.6c-0.8-6.5 3.3-12.6 9.8-14.6 6.5-2 13.5 0.7 16.8 6.4l99 172.8c2.3 4.2 2.2 9.3-0.3 13.5z m0 0"  horiz-adv-x="1024" />

    
    <glyph glyph-name="zhucailingcai" unicode="&#59042;" d="M454.8 414c0 55-44.8 99.8-99.8 99.8S255.2 469 255.2 414s44.8-99.8 99.8-99.8 99.8 44.8 99.8 99.8z m-173 0c0 40.4 32.8 73.2 73.2 73.2 40.4 0 73.2-32.8 73.2-73.2 0-40.3-32.8-73.2-73.2-73.2-40.3 0-73.2 32.8-73.2 73.2zM926.6 434.4c-36.6 54.2-92.8 84.7-143.8 83.4 25.8 45.7 20.8 112.8-17.4 169.4-51.5 76.3-141.9 105.6-201.7 65.4L264.7 551l0.2-0.2c-44.4-29.4-73.7-79.7-73.7-136.7 0-84.7 64.7-154.6 147.2-163 9.3-13.1 16.3-28 20.4-44.1-4.2-14.5-6.5-29.9-6.5-45.7 0-11.2 1.1-22.2 3.3-32.7-18.5-52.7-68.7-90.7-127.7-90.7-74.6 0-135.3 60.7-135.3 135.3s60.7 135.3 135.3 135.3h1.8c-7.3 8.5-13.8 17.8-19.2 27.7h-0.3c-3.1 5.6-5.8 11.4-8.2 17.5L137.6 310l0.2-0.2C93.3 280.4 64 230.1 64 173c0-90.3 73.5-163.8 163.9-163.8 34.5 0 66.6 10.7 93 29l0.2-0.3 55.3 37.3c-2.8 4.6-5.3 9.4-7.6 14.2 0 0 0 0.1 0.1 0.1 26.6-54.5 82.7-92.2 147.4-92.2 34.5 0 66.6 10.7 93 29l0.2-0.3 302.7 204.1c57.6 39 64.1 130.6 14.4 204.3zM578.4 729.3c52.3 35.2 116.6 9.6 161.7-57.2 43.3-64.2 45-129.1-5.2-163L507.3 353.4c7.5 18.7 11.6 39.2 11.6 60.6 0 90.3-73.5 163.8-163.8 163.8l2.6 1.8 220.7 149.7zM219.7 414c0 74.6 60.7 135.3 135.3 135.3S490.3 488.6 490.3 414c0-74.6-60.7-135.2-135.3-135.2S219.7 339.4 219.7 414zM372 250.9c-5.3-0.5-10.6-0.8-16-0.8h-0.3c8.2 0 16.3 0.7 24.2 1.9-1.6-2.4-3.2-4.9-4.6-7.4-1.1 2.2-2.2 4.3-3.3 6.3z m8.9-89.7c0 74.6 60.7 135.3 135.3 135.3 74.6 0 135.3-60.7 135.3-135.3 0-74.6-60.7-135.3-135.3-135.3-74.6 0-135.3 60.7-135.3 135.3zM896 256.4L668.4 100.6c7.5 18.7 11.6 39.2 11.6 60.6 0 90.2-73.2 163.6-163.4 163.8L751 483c0.3 0.2 0.7 0.5 1 0.7 49.7 23.8 107.7-2.8 149.2-64.3 43.3-64.2 45-129.1-5.2-163zM516.2 261c-55 0-99.8-44.8-99.8-99.8s44.8-99.8 99.8-99.8 99.8 44.8 99.8 99.8-44.8 99.8-99.8 99.8z m0-173c-40.4 0-73.2 32.8-73.2 73.2 0 40.3 32.8 73.2 73.2 73.2 40.4 0 73.2-32.8 73.2-73.2 0-40.3-32.9-73.2-73.2-73.2zM128.1 173c0-55 44.8-99.8 99.8-99.8s99.8 44.8 99.8 99.8-44.8 99.8-99.8 99.8c-55.1 0-99.8-44.8-99.8-99.8z m173 0c0-40.4-32.8-73.2-73.2-73.2-40.4 0-73.2 32.8-73.2 73.2 0 40.3 32.8 73.2 73.2 73.2 40.3 0 73.2-32.8 73.2-73.2z"  horiz-adv-x="1024" />

    
    <glyph glyph-name="zijingongxushuangfang" unicode="&#59043;" d="M643.7 429.3c11 0 19.7 7.9 19.7 17.9 0 10-8.7 17.9-19.7 17.9h-75.9l37.4 57.6c5.6 8.7 4.3 20.9-3 27.6-7.3 6.7-17.6 5.1-23.2-3.6l-39.5-61.1c-2.7-4.1-3.9-9.4-3.4-14.5 0.2-2.1 0.7-4.1 1.5-6h-51.4c2.6 6.5 2.1 14.4-1.9 20.5L445 546.7c-5.6 8.7-15.9 10.3-23.2 3.6-7.3-6.7-8.6-18.9-3-27.6l37.1-57.6h-75.6c-11 0-19.7-7.9-19.7-17.9 0-10 8.7-17.9 19.7-17.9H496v-72.8H380.3c-11 0-19.7-7.9-19.7-17.9s8.7-17.9 19.7-17.9H496v-127.4c0-11 7.1-19.7 16.1-19.7 9 0 16.1 8.7 16.1 19.7V320.8h115.7c11 0 19.7 7.9 19.7 17.9s-8.7 17.9-19.7 17.9H528.1v72.8h115.6zM244.4 642c34.8 34.8 75.2 62 120.3 81.1 46.6 19.7 96.2 29.7 147.3 29.7 51.1 0 100.6-10 147.3-29.7 6.1-2.6 12.2-5.4 18.2-8.3 1-0.5 2.1-0.9 3.2-1.1 2.9-0.9 6.2-1 9.3-0.1 8.3 2.5 13 11.3 10.4 19.6l-26.7 87.7c-2.5 8.3-11.3 13-19.6 10.4-8.3-2.5-13-11.3-10.4-19.6l16.8-55.3c-47.3 18.4-97.2 27.8-148.6 27.8-55.3 0-109-10.8-159.5-32.2-48.8-20.6-92.6-50.2-130.2-87.8-37.6-37.6-67.2-81.5-87.8-130.2-21.4-50.5-32.2-104.2-32.2-159.5s10.8-109 32.2-159.5c17.5-41.3 41.3-79 71-112.4 6-6.8 16.5-7.1 22.9-0.7 5.9 5.9 6.1 15.3 0.6 21.6-27.4 30.9-49.4 65.7-65.5 103.8-19.7 46.6-29.7 96.2-29.7 147.3 0 51.1 10 100.6 29.7 147.3 19 44.9 46.3 85.3 81 120.1zM889.6 533.9c-20.6 48.8-50.2 92.6-87.8 130.2-3.7 3.7-7.6 7.4-11.4 11-6.2 5.7-15.8 5.5-21.7-0.5-6.3-6.3-6.1-16.5 0.4-22.6 3.6-3.3 7.1-6.7 10.5-10.1 34.8-34.8 62-75.2 81.1-120.3 19.7-46.6 29.7-96.2 29.7-147.3 0-51.1-10-100.6-29.7-147.3-19.1-45.1-46.3-85.5-81.1-120.3s-75.2-62-120.3-81.1C612.6 6 563.1-4 512-4c-51.1 0-100.6 10-147.3 29.7-18.1 7.7-35.4 16.6-52 26.9-2.2 1.4-4.6 2.1-7.1 2.3-2.1 0.3-4.4 0.1-6.6-0.5-8.3-2.5-13-11.3-10.4-19.6l26.7-87.7c2.5-8.3 11.3-13 19.6-10.4 8.3 2.5 13 11.3 10.4 19.6l-15.5 51c7.4-3.7 15-7.2 22.7-10.4 50.5-21.4 104.2-32.2 159.5-32.2s109 10.8 159.5 32.2c48.8 20.6 92.6 50.2 130.2 87.8 37.6 37.6 67.2 81.5 87.8 130.2 21.4 50.5 32.2 104.2 32.2 159.5 0.1 55.3-10.8 109-32.1 159.5z"  horiz-adv-x="1024" />

    
    <glyph glyph-name="leibie" unicode="&#59044;" d="M339.7 832H201.8C126 832 64 770 64 694.2v-137.8c0-75.8 62-137.8 137.8-137.8h137.8c75.8 0 137.8 62 137.8 137.8V694.2C477.5 770 415.5 832 339.7 832z m482.5 0H684.3c-75.8 0-137.8-62-137.8-137.8v-137.8c0-75.8 62-137.8 137.8-137.8h137.8c75.8 0 137.8 62 137.8 137.8V694.2C960 770 898 832 822.2 832zM339.7 349.5H201.8C126 349.5 64 287.5 64 211.7v-137.8C64-2 126-64 201.8-64h137.8c75.8 0 137.8 62 137.8 137.8V211.7c0.1 75.8-61.9 137.8-137.7 137.8z m482.5 0H684.3c-75.8 0-137.8-62-137.8-137.8v-137.8c0-75.8 62-137.8 137.8-137.8h137.8C898-64 960-2 960 73.8V211.7c0 75.8-62 137.8-137.8 137.8z m0 0"  horiz-adv-x="1024" />

    
    <glyph glyph-name="zhenshichangjing" unicode="&#59045;" d="M264.2 757.3c10 0 18.7 8.7 18.7 18.7V813.3c0 10-8.7 18.7-18.7 18.7s-18.7-8.7-18.7-18.7V776c0-10 8.7-18.7 18.7-18.7zM378.6 721.2l26.1 26.1c7.5 7.5 7.5 18.7 0 26.1-7.5 7.5-18.7 7.5-26.1 0l-26.1-26.1c-7.5-7.5-7.5-18.7 0-26.1 7.5-7.4 18.7-7.4 26.1 0zM378.6 544.5c-7.5 7.5-18.7 7.5-26.1 0-7.5-7.5-7.5-18.7 0-26.1l26.1-26.1c7.5-7.5 18.7-7.5 26.1 0 7.5 7.5 7.5 18.7 0 26.1l-26.1 26.1zM388.6 632.9c0-10 8.7-18.7 18.7-18.7h37.3c10 0 18.7 8.7 18.7 18.7s-8.7 18.7-18.7 18.7h-37.3c-10 0-18.7-8.8-18.7-18.7zM245.5 489.8v-37.3c0-10 8.7-18.7 18.7-18.7s18.7 8.7 18.7 18.7v37.3c0 10-8.7 18.7-18.7 18.7-10-0.1-18.7-8.8-18.7-18.7zM83.7 614.2H121c10 0 18.7 8.7 18.7 18.7s-8.7 18.7-18.7 18.7H83.7c-10 0-18.7-8.7-18.7-18.7s8.8-18.7 18.7-18.7zM149.7 721.2c7.5-7.5 18.7-7.5 26.1 0 7.5 7.5 7.5 18.7 0 26.1l-26.1 26.1c-7.5 7.5-18.7 7.5-26.1 0-7.5-7.5-7.5-18.7 0-26.1l26.1-26.1zM149.7 544.5l-26.1-26.1c-7.5-7.5-7.5-18.7 0-26.1 7.5-7.5 18.7-7.5 26.1 0l26.1 26.1c7.5 7.5 7.5 18.7 0 26.1-7.5 7.5-18.7 7.5-26.1 0zM270.4 732.4c-54.8 0-99.6-44.8-99.6-99.6s44.8-99.6 99.6-99.6S370 578 370 632.8c-0.1 54.8-44.9 99.6-99.6 99.6z m0-167.8c-38.2 0-68.3 30-68.3 68.3 0 38.2 30 68.3 68.3 68.3 38.2 0 68.3-30 68.3-68.3 0-38.2-30.1-68.3-68.3-68.3zM774.4 540.8C635 591.8 482 524.6 422.2 391.5c-2.5-6.2 32.4-18.7 34.8-13.7 2.5 5 5 10 7.5 16.2 11.2 8.7 32.4 10 44.8 5 16.2-6.2 24.9-23.6 18.7-39.8h1.2c-1.2-1.2-1.2-3.7-2.5-5-2.5-6.2 32.4-18.7 34.8-13.7 2.5 6.2 6.2 12.4 8.7 17.4 8.7 8.7 21.2 11.2 32.4 7.5 16.2-6.2 24.9-23.6 18.7-39.8l34.8-12.4c3.7 10 11.2 16.2 19.9 18.7L566.6 31.8c-26.1-6.2-49.8-18.7-73.4-32.4v0.2c-21.1-11-55.9-17.9-114.4-16.7-57.7 1.2-129.9 2.3-196.7-3.1l-2.4-0.2C109.9-34 82.5-64 82.5-64h871.1s-22.4 33.6-161.8 37.3c-57.2 1.2-77.2 62.2-174.2 62.2h-8.7L712.2 318c5-7.5 6.2-17.4 3.7-27.4l34.8-12.4c6.2 16.2 23.6 24.9 39.8 18.7 16.2-6.2 24.9-23.6 18.7-39.8v-2.5c-1.2-6.2 32.4-17.4 34.8-12.4v1.2c6.2 16.2 23.6 24.9 39.8 18.7 12.4-3.7 27.4-14.9 32.4-27.4-1.2-7.5-2.5-14.9-5-22.4-1.2-6.2 33.6-18.7 36.1-12.4 3.7 11.2 6.2 23.6 7.5 34.8h1.2v3.7c18.7 128.2-54.7 256.4-181.6 302.4zM556 397.2c-8 13.3-23.7 23.2-39.7 28.5-12.6 5.3-33.4 1.5-44 1.5 56.1 79.3 159.7 113.7 238.5 98.7 2.7-1.3 19.5-5.6 20.8-8.2C663.7 503 600 455.9 556 397.2z m234.2-72.1c-18.9 5.2-32.6 3-49.1-5.2-7 15.3-19.2 31.4-36.8 37.3-17.6 5.9-36.9 4.4-53.3-3.8-7 15.3-9.6 22.4-26.4 30.2-13.2 6.1-34 5.7-41.5 4.7 37.3 48.6 118.9 112.3 183.1 111.3 36.4-39.9 53.1-140.1 54.3-195.3-1 6.2-21.3 18.4-30.3 20.8z m101.2-28.4c-22.2 4.7-31.5-2.1-44.5-5.7 0.9 61.5-11.8 135.8-39.7 194l16.6-3.8c86.6-41.6 116.4-153.3 113.6-225.7-7.7 8-28 38.8-46 41.2z"  horiz-adv-x="1024" />

    
    <glyph glyph-name="baozhengjinjianguan" unicode="&#59046;" d="M754.2 231c0 135.5-110.3 245.3-246.3 245.3S261.6 366.5 261.6 231c0-75.4 34.3-142.6 88-187.6h-59.1v-28.9h434.6v28.9h-59.2c54 45 88.3 112.2 88.3 187.6z m-354-187.6C334.9 80.8 290.6 150.8 290.6 231c0 119.4 97.5 216.4 217.3 216.4 119.8 0 217.3-97.1 217.3-216.4 0-80.3-44.2-150.3-109.5-187.6H400.2zM536.9 245.5h-14.5v28.9h43.5v28.9h-43.5V332h-29v-28.9h-14.5c-24 0-43.5-19.4-43.5-43.3s19.5-43.3 43.5-43.3h14.5v-28.9H450v-28.8h43.5V130h29v28.9H537c24 0 43.5 19.4 43.5 43.3s-19.6 43.3-43.6 43.3z m-43.5 0h-14.5c-8 0-14.5 6.5-14.5 14.4 0 8 6.5 14.4 14.5 14.4h14.5v-28.8z m43.5-57.8h-14.5v28.9h14.5c8 0 14.5-6.5 14.5-14.4 0-8-6.5-14.5-14.5-14.5zM960 377.6h-37.9c-35.7 160.3-205.4 281.9-409.8 281.9S138.2 538 102.5 377.6H64c36.2 177.7 222.7 313.2 448 313.2s411.8-135.5 448-313.2zM500.7 753.4H531v-62.6h-30.3v62.6z"  horiz-adv-x="1024" />

    
    <glyph glyph-name="henjiguanli" unicode="&#59047;" d="M520.3 636.5c-41.1 0-74.5-33.1-74.5-73.9 0-40.8 33.4-73.9 74.5-73.9s74.5 33.1 74.5 73.9c0 19.6-7.8 38.4-21.8 52.3-14 13.8-32.9 21.6-52.7 21.6z m0-118.2c-18.1 0-34.4 10.8-41.3 27.4-6.9 16.6-3.1 35.6 9.7 48.3 12.8 12.7 32 16.5 48.7 9.6 16.7-6.9 27.6-23 27.6-41 0-24.5-20-44.3-44.7-44.3z m0 0M520.3 754.8c-106.9-0.2-193.5-86.1-193.7-192.1 0.6-12.9 2-25.7 4.2-38.4 27.1-86.6 172.8-232.1 178.8-238L520 276l10.4 10.3c6.3 6.2 152 151.4 178.8 240.3 0 2.7 3.6 25.1 3.6 36.1-0.1 105.5-86 191.3-192.5 192.1z m161.2-221.7C660.3 466 554.3 352.8 520.3 317.9c-34 35.2-140.1 147.8-160.6 212.8-0.9 6.2-3.3 24.5-3.3 31.9 0 89.8 73.4 162.6 163.9 162.6s163.9-72.8 163.9-162.6c0-7.4-2.4-25.7-2.7-29.5z m0 0M895.1 19.8c-2.8-3.9-7.1-6.6-12.3-6.6H233.9c-8.5 0-15.4 6.9-15.4 15.4s6.9 15.4 15.4 15.4h648.8c25.6 0 46.3 20.8 46.3 46.4v46.3c0 25.6-20.7 46.3-46.3 46.3H164.4C109 183.2 64 228.1 64 283.6c0 52 39.5 94.7 90 99.9 0.9 0.2 1.7 0.5 2.6 0.5h200.8c8.5 0 15.4-6.9 15.4-15.4s-6.9-15.4-15.4-15.4H141.3c-25.6 0-46.3-20.8-46.3-46.3v-46.3c0-25.6 20.8-46.3 46.3-46.3H859.7c55.5 0 100.4-45 100.4-100.4-0.1-43.2-27.1-79.7-65-94.1z"  horiz-adv-x="1024" />

    
    <glyph glyph-name="gongyingshangziyuanku" unicode="&#59048;" d="M813.3 289.9c-9.5 0-17.1-7.7-17.1-17.1V60c0-28.3-23-51.3-51.4-51.3H285.3c-28.3 0-51.4 23-51.4 51.3V366.1c0 9.5-7.7 17.1-17.1 17.1-9.5 0-17.1-7.7-17.1-17.1V60c0-47.2 38.4-85.6 85.6-85.6h459.5c47.2 0 85.6 38.4 85.6 85.6V272.8c0.1 9.4-7.6 17.1-17.1 17.1zM381.3 157.6h261.3c10.3 0 18.7-8.4 18.7-18.7 0-10.3-8.4-18.7-18.7-18.7H381.3c-10.3 0-18.7 8.4-18.7 18.7 0.1 10.4 8.4 18.7 18.7 18.7zM381.3 269.6h168c10.3 0 18.7-8.4 18.7-18.7 0-10.3-8.4-18.7-18.7-18.7h-168c-10.3 0-18.7 8.4-18.7 18.7 0.1 10.4 8.4 18.7 18.7 18.7zM952.5 582.7L891.8 748c-10 27.3-17.8 45.6-47.1 45.6H198c-29.3 0-55.8-18.3-65.8-45.6L71.5 582.7c-11.3-30.7-9.8-63.9 4.1-93.5s57.3-52.1 88.3-63.2c26.4-9.5 55.6 8.9 82.2 17.9 17.4 5.9 33.3 15.7 46.4 28.3 22.8-22.2 72.3-53.6 105.1-53.6s82.2 31.4 105.1 53.6c22.8-22.2 72.3-53.6 105.1-53.6s82.3 31.4 105.1 53.6c13.1-12.6 47.6-41.1 65.1-47 26.6-9 55.8-8.8 82.2 0.8 31 11.2 74.4 33.6 88.3 63.2 13.8 29.6 15.3 62.8 4 93.5z m-41.4-76.3c-9.3-19.7-25.8-34.7-46.4-42.2-17.9-6.4-55.5-6.6-73.4-0.5-17.5 5.9-51.2 36.3-61.1 51.5-3.8 5.8-10.3 9.3-17.3 9.3s-13.5-3.5-17.3-9.3c-15.3-23.3-59.8-56-87.8-56s-72.5 32.6-87.8 56c-3.8 5.8-10.3 9.3-17.3 9.3s-13.5-3.5-17.3-9.3c-15.3-23.4-59.8-56-87.8-56s-72.5 32.6-87.8 56c-3.8 5.8-10.3 9.3-17.3 9.3s-13.5-3.5-17.3-9.3c-9.9-15.3-43.7-45.6-61.1-51.5-17.9-6.1-18.2-5.9-36.1 0.5-20.7 7.4-55.8 22.4-65.1 42.2-9.3 19.7-10.3 41.9-2.7 62.3L170.9 734c4.1 11.3 15 18.8 27.1 18.8h646.7c12.1 0 4.3-7.6 8.5-18.8l60.7-165.3c7.4-20.4 6.5-42.6-2.8-62.3z"  horiz-adv-x="1024" />

    
    <glyph glyph-name="caigoushangziyuanku" unicode="&#59049;" d="M396.7 180c2.5-11.5 13-19 24.1-19h6l496 125.7c6.5 1.5 12 6 15.5 11.5 3.5 6 4.5 12.5 3 19L815.4 812.8c-1.5 6.5-6 12-11.5 15.5-6 3.5-12.5 4.5-19.1 3l-496-125.8c-13.5-3.5-21.6-17-18.1-30.6l126-494.9zM783.9 797.1l121.2-479.5-479.9-118.7-121.3 475.9 480 122.3zM600.8 449.5c2 0 4 0 6.5 1l160.5 40.6c13.5 3.5 21.6 13.4 18.1 26.9-3.5 13.5-17 15.4-30.6 11.9l-160.5-40.6c-13.5-3.5-21.6-12.1-18-25.7 2.4-11.4 12.9-14.1 24-14.1zM497 309.3c2 0 4 0 6 1l291.9 74.1c13.5 3.5 21.6 10.9 18 24.4-3.5 13.5-17.1 15.4-30.6 11.9l-291.4-74.2c-13.5-3.5-21.6-10.9-18.1-24.4 2.6-11.4 13.1-12.8 24.2-12.8zM951.3 220.5c-3.5 13.5-17.1 13-30.6 9.5L423.1 102.8c-0.3-0.1-0.5-0.1-0.7-0.2-16.9 20.3-41.5 33.9-69.3 36.4L214.8 622.9c-1.5 6-6 11.5-11.5 15l-95.2 57.7c-12 7-26.3 10.4-33.3-1.6-7-12-0.6-20.9 11.5-28l98.8-57.6 131.4-472.8c-42.8-12-74.2-51.3-74.2-97.9 0-56.1 45.6-101.7 101.8-101.7s101.8 45.6 101.8 101.7c0 11.4-1.9 22.3-5.4 32.5L933.2 196c13.6 3.5 21.6 10.9 18.1 24.5zM344-31c-38.1 0-68.8 30.7-68.8 68.7s30.7 68.7 68.8 68.7c38.1 0 68.8-30.7 68.8-68.7S382.1-31 344-31z"  horiz-adv-x="1024" />

    
    <glyph glyph-name="zaixianzhaotoubiao" unicode="&#59050;" d="M521.3 255.4c30.2 0 54.7 24.5 54.7 54.7v36.5c0 30.2-24.5 54.7-54.7 54.7-30.2 0-54.7-24.5-54.7-54.7v-36.5c0-30.2 24.5-54.7 54.7-54.7z m-18.2 91.1c0 10.1 8.2 18.2 18.2 18.2 10.1 0 18.2-8.2 18.2-18.2V310c0-10.1-8.2-18.2-18.2-18.2-10.1 0-18.2 8.2-18.2 18.2v36.5zM562.2 496h-22.6v24.1c0 18.1 14.7 32.8 32.8 32.8 10.1 0 18.2 8.2 18.2 18.2s-8.2 18.2-18.2 18.2c-38.2 0-69.3-31.1-69.3-69.3v-24h-22.6c-80.5 0-145.8-65.3-145.8-145.8v-227.5c0-103.1 83.6-186.7 186.7-186.7 103 0 186.6 83.6 186.6 186.7V350.2c0 80.5-65.3 145.8-145.8 145.8z m109.3-373.3c0-40.1-15.6-77.8-44-106.2-28.4-28.4-66.1-44-106.2-44-40.1 0-77.8 15.6-106.2 44-28.4 28.4-44 66.1-44 106.2V350.2c0 29.2 11.4 56.7 32 77.3 20.7 20.7 48.1 32 77.3 32h81.7c29.2 0 56.7-11.4 77.3-32 20.7-20.7 32-48.1 32-77.3v-227.5zM615.3 97.5c-9.1 4.4-20 0.6-24.4-8.5-6.2-12.9-16-23.8-28-31.5-12.4-7.9-26.8-12.1-41.6-12.1s-29.2 4.2-41.6 12.1c-12.1 7.7-21.8 18.6-28 31.5-4.4 9.1-15.3 12.9-24.4 8.5-9.1-4.4-12.9-15.3-8.5-24.4 9.2-19 23.4-35 41.2-46.4 18.3-11.7 39.5-17.9 61.2-17.9 21.8 0 43 6.2 61.2 17.9 17.8 11.4 32 27.4 41.2 46.4 4.5 9.1 0.8 20-8.3 24.4zM920.8 346.7c1.1 12.3 1.9 24.7 1.9 37.3 0 226.8-183.9 410.7-410.7 410.7S101.3 610.8 101.3 384c0-12.6 0.8-25 1.9-37.3H65.9C64.9 359 64 371.4 64 384 64 631.4 264.6 832 512 832s448-200.6 448-448c0-12.6-0.9-25-1.9-37.3h-37.3z"  horiz-adv-x="1024" />

    
    <glyph glyph-name="zhifu" unicode="&#59051;" d="M385.6 311.3c-11.3 0-20.5-8.9-20.5-20 0-11 9.2-20 20.5-20h107.9v-141.8c0-11.3 9-20.5 20-20.5s20 9.2 20 20.5V271.3h107.4c11.3 0 20.5 9 20.5 20s-9.2 20-20.5 20H533.4v86c2.1 0 4.2 0.3 6.2 1H641c11.3 0 20.5 9 20.5 20s-9.2 20-20.5 20h-97.9l111.8 111.8c8 8 8.2 20.8 0.4 28.6-7.8 7.8-20.6 7.7-28.6-0.4l-113.2-113-113.1 113.1c-8 8-20.8 8.2-28.6 0.4-7.8-7.8-7.7-20.6 0.4-28.6L484 438.3h-98.4c-11.3 0-20.5-9-20.5-20s9.2-20 20.5-20h101.9c1.9-0.6 4-1 6-1v-86H385.6z m0 0M512 832C264.6 832 64 631.4 64 384c0-80.3 21.1-155.7 58.2-220.8 0.9-2.9 2.5-5.5 4.5-7.7 0.2-0.4 0.5-0.8 0.7-1.2l0.2 0.2c3.7-3.5 8.7-5.7 14.2-5.7 11.3 0 20.5 9.2 20.5 20.5 0 5.5-2.2 10.5-5.7 14.2l0.1 0.1C123.1 242.7 104 311.1 104 384c0 225.3 182.7 408 408 408s408-182.7 408-408-182.7-408-408-408c-83.6 0-161.3 25.1-226 68.2l-0.2-0.2c-3.6 3.2-8.4 5.2-13.6 5.2-11.3 0-20.5-9.2-20.5-20.5 0-9.4 6.4-17.4 15.1-19.7 70.5-46.2 154.7-73 245.2-73 247.4 0 448 200.6 448 448S759.4 832 512 832z m0 0"  horiz-adv-x="1024" />

    
    <glyph glyph-name="huoche" unicode="&#59052;" d="M64 388.2h896v-56H64v56z m658-355.6c-61.6 0-112 50.4-112 112s50.4 112 112 112 112-50.4 112-112-47.6-112-112-112z m0 168c-30.8 0-56-25.2-56-56s25.2-56 56-56 56 25.2 56 56-25.2 56-56 56zM260 35.4c-61.6 0-112 50.4-112 112s50.4 112 112 112 112-50.4 112-112-50.4-112-112-112z m0 168c-30.8 0-56-25.2-56-56s25.2-56 56-56 56 25.2 56 56-25.2 56-56 56z m0 0M934.8 500.2L800.4 634.6c-16.8 16.8-36.4 25.2-58.8 25.2H635.2v-56h106.4c8.4 0 14-2.8 19.6-8.4L895.6 461c5.6-5.6 8.4-11.2 8.4-19.6v-238c0-16.8-11.2-28-28-28h-86.8v-56H876c47.6 0 84 36.4 84 84v238c0 19.6-8.4 42-25.2 58.8zM195.6 172.6H120V388.2H64v-271.6h131.6v56z m126 0h338.8v-56H321.6v56z m0 0M598.8 735.4H363.6c-16.8 0-28-11.2-28-28s11.2-28 28-28h235.2c16.8 0 28-11.2 28-28v-263.2H120V651.4c0 16.8 11.2 28 28 28h44.8c16.8 0 28 11.2 28 28s-11.2 28-28 28H148c-47.6 0-84-36.4-84-84v-319.2h618.8V651.4c0 47.6-39.2 84-84 84z m0 0"  horiz-adv-x="1024" />

    
    <glyph glyph-name="ditu" unicode="&#59053;" d="M512-64c-6.4 0-12.8 2.4-17.8 7.3L264.5 173.1c-12.9 11.4-35.1 35.2-37.6 37.9-0.2 0.2-0.5 0.5-0.7 0.8-58.2 68-90.2 154.7-90.2 244.1 0 114.6 51.3 221.4 140.8 293.3 10.8 8.6 26.6 6.9 35.2-3.8 8.6-10.8 6.9-26.6-3.8-35.2-77.6-62.2-122-154.9-122-254.2 0-77.4 27.6-152.3 77.9-211.1 6.8-7.3 25.1-26.6 34.1-34.5 0.4-0.4 0.8-0.8 1.3-1.2L512-3.4l212.6 212.6c0.4 0.4 0.8 0.8 1.3 1.2 9 7.8 27.3 27.2 34.1 34.5 50.2 58.9 77.9 133.8 77.9 211.1 0 179.6-146.1 325.8-325.8 325.8-26.1 0-52.1-3.1-77.2-9.2-13.4-3.3-27 5-30.3 18.5-3.3 13.4 5 27 18.5 30.3 29 7 58.9 10.6 89 10.6 50.8 0 99.9-9.9 146.3-29.6 44.7-19 85-46.1 119.5-80.6 34.5-34.5 61.6-74.8 80.6-119.5C878 556 888.1 506.7 888.1 456c0-89.4-32-176.1-90.2-244.1-0.2-0.3-0.4-0.5-0.7-0.8-2.5-2.7-24.7-26.5-37.6-37.9L529.8-56.6c-5.1-5-11.5-7.4-17.8-7.4z m0 0M512 322.9c-80 0-145 65-145 145s65 145 145 145 145-65 145-145-65.1-145-145-145z m0 239.9c-52.3 0-94.8-42.5-94.8-94.8s42.5-94.8 94.8-94.8 94.8 42.5 94.8 94.8-42.5 94.8-94.8 94.8z m0 0"  horiz-adv-x="1024" />

    
    <glyph glyph-name="gouwuche" unicode="&#59054;" d="M935.5 716.1c18.7-19.7 27.2-47.3 23.7-76.1l-50.3-268.4c-5.5-41.8-45.8-75.6-91.9-75.6l-430.9-29.6c-0.8-0.2-1.8-0.2-2.5-0.2-16.6 0-30.7 12-31.8 27.6-1.2 16.5 12 30.6 29.4 31.9l433.2 29.8c15.9 0.1 29.2 11.7 31 25L895.8 649c1.2 10-1.8 21.1-8.1 27.8-4 4.2-9.6 6.6-15.4 6.5H319.5c-17.7 0-32 13.4-32 29.8s14.5 29.8 32 29.8h552.9c24.4-0.1 46.7-9.6 63.1-26.8zM862.2 206.6c14.5 0 32-15.2 32-31.9 0-16.4-14.2-32-32-32H343.7c-46.1 0-86.5 38.1-92.1 81.5l-54.2 355.6-30.8 166.3c-1.9 14.6-16.1 21.9-30 21.9H96c-17.7 0-32 17.8-32 34.2C64 818.6 78.4 832 96 832h40.6c46.5 0 87.5-29.8 94.1-85.9l29.8-166.3L314.8 232c1.8-13.9 15.3-25.5 28.7-25.5h518.7v0.1zM320 0s0-35.4 0 0c0 35.3 28.7 64 64 64s64-28.7 64-64-28.7-64-64-64-64 28.7-64 64zM704 0s0-35.4 0 0c0 35.3 28.7 64 64 64s64-28.7 64-64-28.7-64-64-64-64 28.7-64 64z"  horiz-adv-x="1024" />

    
    <glyph glyph-name="dianpu" unicode="&#59055;" d="M832.8 793.2l-5.6 11.2H199.4l-5.6-11.2C182.6 782-13.6 484.9 98.5 350.4c67.3-84.1 168.2-78.5 274.7 16.8 28-28 72.9-72.9 140.1-72.9 67.3 0 112.1 44.8 134.5 72.9 56.1-50.4 112.1-72.9 162.6-72.9 44.8 0 84.1 22.4 112.1 56.1C1040.2 484.9 844 782 832.8 793.2zM888.9 384c-22.4-28-44.8-39.2-72.9-39.2-39.2 0-84.1 22.4-140.1 72.9V608.2c0 16.8-11.2 28-28 28s-28-16.8-28-28v-190.6c-5.6-11.2-44.8-72.9-106.5-72.9-67.3 0-112.1 72.9-112.1 72.9V613.8c0 16.8-11.2 28-28 28s-28-11.2-28-28V412c-44.8-44.8-95.3-67.3-128.9-67.3-28 0-56.1 11.2-78.5 39.2-67.3 84.1 33.6 280.3 89.7 364.4h571.8c55.9-84 156.8-280.2 89.5-364.3zM844 243.9c-16.8 0-28-11.2-28-28v-179.4c0-11.2-11.2-22.4-22.4-22.4H233c-11.2 0-22.4 11.2-22.4 22.4V215.8c0 16.8-11.2 28-28 28s-28-11.2-28-28v-179.4c0-39.2 33.6-72.9 72.9-72.9H788c39.2 0 72.9 33.6 72.9 72.9V215.8c5.6 16.8-5.6 28.1-16.9 28.1z m0 0"  horiz-adv-x="1024" />

    
    <glyph glyph-name="shangchuanzhaopian" unicode="&#59056;" d="M465.7 553.9c-102.2 0-185.4-83.1-185.4-185.4 0-102.2 83.1-185.4 185.4-185.4S651 266.3 651 368.6c0 102.2-83.1 185.3-185.3 185.3z m0-308.9c-68.2 0-123.6 55.4-123.6 123.6 0 68.2 55.4 123.6 123.6 123.6 68.2 0 123.6-55.4 123.6-123.6-0.1-68.2-55.5-123.6-123.6-123.6z m0 0M558.3 90.5H156.7c-17 0-30.9 13.8-30.9 30.9V615.7c0 17 13.9 30.9 30.9 30.9h92.7c17.1 0 30.9 13.8 30.9 30.9 0 17.1-13.8 30.9-30.9 30.9h-92.7c-51.1 0-92.7-41.6-92.7-92.7v-494.3c0-51.1 41.6-92.7 92.7-92.7h401.7c17.1 0 30.9 13.8 30.9 30.9-0.1 17.1-13.9 30.9-31 30.9z m-61.7 556.1h309c17.1 0 30.9-13.9 30.9-30.9v-247.2c0-17.1 13.8-30.9 30.9-30.9 17.1 0 30.9 13.8 30.9 30.9V615.7c0 51.1-41.6 92.7-92.7 92.7h-309c-17.1 0-30.9-13.8-30.9-30.9 0-17 13.8-30.9 30.9-30.9z m0 0M712.8 569.4c0-25.6 20.7-46.3 46.3-46.3 25.6 0 46.3 20.7 46.3 46.3 0 25.6-20.7 46.3-46.3 46.3-25.5 0-46.3-20.7-46.3-46.3zM311.2 739.3h123.6c17.1 0 30.9 13.8 30.9 30.9 0 17.1-13.8 30.9-30.9 30.9H311.2c-17.1 0-30.9-13.8-30.9-30.9 0-17.1 13.8-30.9 30.9-30.9z m617.9-587h-92.7V245c0 17.1-13.8 30.9-30.9 30.9-17.1 0-30.9-13.8-30.9-30.9v-92.7h-92.7c-17.1 0-30.9-13.8-30.9-30.9 0-17.1 13.8-30.9 30.9-30.9h92.7v-92.7c0-17.1 13.8-30.9 30.9-30.9 17.1 0 30.9 13.8 30.9 30.9v92.7h92.7c17.1 0 30.9 13.8 30.9 30.9 0 17.1-13.8 30.9-30.9 30.9z m0 0"  horiz-adv-x="1024" />

    
    <glyph glyph-name="shouhuo" unicode="&#59057;" d="M372 387.2c-15.5 0-28-12.5-28-28v-140H204c-15.5 0-28-12.5-28-28s12.5-28 28-28h168c15.5 0 28 12.5 28 28v168c0 15.5-12.5 28-28 28z m0 0M959.6 524.5c1.3 12.3-0.9 25.4-7.3 38.3l-60.8 121.6c-18.1 36.2-64.1 64.6-104.6 64.6H237.1c-40.5 0-86.5-28.4-104.6-64.6L71.7 562.9c-6.5-12.9-8.6-26-7.3-38.3H64v-473.3h0.1v-5.2c0-15 12.1-27.1 27.1-27.1h841.1c15 0 27.1 12.1 27.1 27.1v5.2h0.5V524.5h-0.3zM904 387.2H708c-15.5 0-28-12.5-28-28s12.5-28 28-28h196v-56H540c-15.5 0-28-12.5-28-28s12.5-28 28-28h364v-146.1H120V474c2.4-0.2 4.6-0.8 7.2-0.8h769.6c2.5 0 4.8 0.5 7.2 0.8v-86.8z m-7.2 142H127.2c-4.2 0-6.7 0.9-7.3 0.9-0.2 0-0.2-0.1-0.2-0.2-0.1 0.6-0.1 3.4 2.2 7.9l60.8 121.6c8.8 17.6 34.8 33.7 54.5 33.7h549.7c19.7 0 45.7-16.1 54.5-33.7l60.8-121.6c2.3-4.7 2.6-7.1 2.7-7.1-0.5-0.3-3.1-1.5-8.1-1.5z"  horiz-adv-x="1024" />

    
    <glyph glyph-name="chenggong" unicode="&#59058;" d="M939.7 517.1c-15.3 57.7-54 114.4-55.7 116.8-8.1 11.7-24.1 14.7-35.8 6.6-10.9-7.5-14.2-21.9-8.1-33.3h-0.1c0.5-0.7 0.9-1.4 1.4-2.1 0.1-0.1 0.1-0.2 0.2-0.3 0 0 0.2-0.2 0.4-0.6 1-1.6 2.1-3.1 3.1-4.7 2.9-4.5 7.4-11.7 12.5-20.7 0.7-1.2 1.4-2.4 2-3.6 10.8-19.4 23.8-45.9 30.5-71.7 1-3.2 2-6.3 2.9-9.5 2-7 3.8-14 5.5-21.2 23.7-103.2 5.8-209.5-50.4-299.2-56.2-89.7-144-152.2-247.2-175.9-103.2-23.7-209.5-5.8-299.2 50.4-89.7 56.2-152.2 144-175.9 247.2-23.7 103.2-5.8 209.5 50.4 299.2 56.2 89.7 144 152.2 247.2 175.9 60.5 13.9 122 13.5 180.7-0.5 38.7-9.3 76.2-24.5 111.3-45.4 2.4-1.5 4.9-2.9 7.3-4.4l0.1 0.1c11.9-6.7 27-2.9 34.4 8.8 7.6 12.1 3.9 27.9-8.2 35.5-0.5 0.3-3.4 2.1-8.1 4.9-208.8 123.7-479.1 59-608.5-147.6C1.1 412.1 64.6 135.7 274.2 4.4c209.7-131.3 486.1-67.8 617.4 141.8 72.2 115.2 85.5 250.5 48.1 370.9zM742 555.3L512.6 258l-5.6-7.3-7.4 5.4-193.4 142c-11.5 8.4-27.6 5.9-36-5.5-8.4-11.5-5.9-27.6 5.5-36l210.6-154.5 10.1-7.4c4.3-2.1 9.2-3.2 14.3-3.2 8.3 0 15.9 3.1 21.7 8.1l8.2 10.6 242.1 313.7c8.7 11.3 6.6 27.4-4.6 36.1-11.2 8.6-27.4 6.5-36.1-4.7z m0 0"  horiz-adv-x="1024" />

    
    <glyph glyph-name="dingdan" unicode="&#59059;" d="M793.1-60.1H230.9c-11.7 0-22.8 2.2-33.8 6.6-10.3 4.4-19.8 10.3-27.2 18.3-8.1 8.1-13.9 16.9-18.3 27.2-4.4 11-6.6 22-6.6 33.8v585c0 11.7 2.2 22.8 6.6 33.8 4.4 10.3 10.3 19.8 18.3 27.2 8.1 8.1 16.9 13.9 27.2 18.3 11 4.4 22 6.6 33.8 6.6H316v-43.3h-85.1c-23.5 0-43.3-19.1-43.3-43.3v-585c0-23.5 19.1-43.3 43.3-43.3h561.5c23.5 0 43.3 19.1 43.3 43.3V610.8c0 23.5-19.1 43.3-43.3 43.3H708v43.3h85.1c11.7 0 22.8-2.2 33.8-6.6 10.3-4.4 19.8-10.3 27.2-18.3 8.1-8.1 13.9-16.9 18.3-27.2 4.4-11 6.6-22 6.6-33.8v-585c0-11.7-2.2-22.8-6.6-33.8-4.4-10.3-10.3-19.8-18.3-27.2-8.1-8.1-16.9-13.9-27.2-18.4-11-5-22-7.2-33.8-7.2zM317.5 416.3h389.8v-44H317.5v44z m0-193.8H556v-44H317.5v44z m0 0M674.9 762.7h-55.8C599.3 802.3 558.2 828 512.7 828c-45.5 0-86.6-25.7-106.4-65.3h-55.8c-30.1 0-54.3-24.2-54.3-54.3v-140.9h431.6l1.5 140.9c0 30.1-24.3 54.3-54.4 54.3z m10.3-151.9H338.8v97.6c0 5.9 5.1 11 11 11h85.9l5.1 14.7c10.3 30.1 38.9 50.6 71.2 50.6s60.9-20.5 71.2-50.6l5.1-14.7h85.9c5.9 0 11-5.1 11-11v-97.6z"  horiz-adv-x="1024" />

    
    <glyph glyph-name="jiaoyi" unicode="&#59060;" d="M212 652.4h600c13 0 23.2 10.2 23.2 23.2S825 698.8 812 698.8H212c-13 0-23.2-10.2-23.2-23.2s10.2-23.2 23.2-23.2zM311.8 736.9h400.4c13 0 23.2 10.2 23.2 23.2s-10.2 23.2-23.2 23.2H311.8c-13 0-23.2-10.2-23.2-23.2s10.2-23.2 23.2-23.2zM936.8 611.6H87.2c-13 0-23.2-10.2-23.2-23.2v-580.5c0-13 10.2-23.2 23.2-23.2h849.6c13 0 23.2 10.2 23.2 23.2V588.4c0 13-10.2 23.2-23.2 23.2z m-23.2-580.5H110.4V565.2h803.2v-534.1zM477.1 377.20000000000005c-4.8 0-9.6 2.3-12.7 6.7l-37.6 51.2c-5.4 7.3-4.1 17.6 2.9 23.3 7 5.7 16.9 4.3 22.3-3l37.9-51.6c5.4-7.3 4.1-17.6-2.9-23.3-3.3-2.3-6.4-3.3-9.9-3.3z m78.3 0c-3.5 0-6.7 1-9.9 3.3-3.4 2.7-5.6 6.6-6.1 11s0.6 8.8 3.2 12.3l37.9 51.6c5.4 7.3 15.3 8.6 22.3 3 7-5.7 8.3-16 2.9-23.3l-37.9-51.2c-2.8-4.3-7.6-6.7-12.4-6.7z m0 0M619.5 353.29999999999995H406.6c-8.9 0-15.9 7.3-15.9 16.6s7 16.6 15.9 16.6h212.9c8.9 0 15.9-7.3 15.9-16.6s-7-16.6-15.9-16.6z m0-101.1H406.6c-8.9 0-15.9 7.3-15.9 16.6s7 16.6 15.9 16.6h212.9c8.9 0 15.9-7.3 15.9-16.6s-7-16.6-15.9-16.6z m0 0M513.1 140.70000000000005c-8.9 0-15.9 7.3-15.9 16.6V369.9c0 9.3 7 16.6 15.9 16.6s15.9-7.3 15.9-16.6v-212.6c0-9.3-7-16.6-15.9-16.6z m0 0"  horiz-adv-x="1024" />

    
    <glyph glyph-name="dianhua" unicode="&#59061;" d="M636.2 207L591 173.8s-45.2-21.1-99.5 27.1c-54.3 48.3-150.6 158.5-177.8 221.6-27.1 63.3 27.1 90.4 27.1 90.4s70.8 58.8 73.8 69.3c3 10.6 42.2 52.7-42.2 165.7-84.2 113.1-103.8 90.5-149 55.9S114.8 701.3 101.4 623c-13.6-78.3-22.6-174.8 92-346.6s287.8-302.9 384.2-324c96.6-21.1 164.3-34.6 260.7 43.7 96.5 78.4 113.1 85.9 69.4 141.6-43.6 55.8-139.8 122.7-154.2 125.4-14.3 2.9-35 7.7-67.5-16.3-32.7-24-49.8-39.8-49.8-39.8z m0 0"  horiz-adv-x="1024" />

    
    <glyph glyph-name="shangpin" unicode="&#59062;" d="M512 384c-109.6 0-201.1 79.1-220.3 183.3 12.8 9 21.2 23.9 21.2 40.7 0 27.5-22.3 49.8-49.8 49.8-27.5 0-49.8-22.3-49.8-49.8 0-19.9 11.7-37.1 28.6-45.1 21.6-129.6 134.4-228.7 270-228.7s248.5 99.1 270 228.7a49.69 49.69 0 0 1 28.6 45.1c0 27.5-22.3 49.8-49.8 49.8-27.5 0-49.8-22.3-49.8-49.8 0-16.8 8.4-31.7 21.2-40.7C713.1 463.1 621.6 384 512 384zM860.4 832H658.2c0-0.1 0-0.1 0.1-0.2-12.3-1.5-21.8-12-21.8-24.7s9.5-23.2 21.8-24.7c0-0.1 0-0.1-0.1-0.2h202.2c27.4 0 49.8-22.3 49.8-49.8v-696.9c0-27.4-22.3-49.8-49.8-49.8H163.6c-27.4 0-49.8 22.3-49.8 49.8V732.4c0 27.4 22.3 49.8 49.8 49.8H341c0 0.1 0 0.1-0.1 0.2 12.3 1.5 21.8 12 21.8 24.7s-9.5 23.2-21.8 24.7c0 0.1 0 0.1 0.1 0.2H163.5C108.6 832 64 787.3 64 732.4v-696.9c0-54.9 44.6-99.6 99.6-99.6h696.9c54.9 0 99.6 44.7 99.6 99.6V732.4c-0.1 55-44.8 99.6-99.7 99.6z m0 0"  horiz-adv-x="1024" />

    
    <glyph glyph-name="chanpin" unicode="&#59063;" d="M502.9 443.1c-18.4 0-36.6 4.1-50.9 10.1L171 591.7c-18.4 10.1-30.5 24.5-30.5 40.7 0 16.3 10.2 32.6 30.5 42.8L454.1 819.8c16.3 8.1 34.6 12.2 55 12.2 18.4 0 36.6-4.1 50.9-10.1l281-138.5c18.4-10.1 30.5-24.5 30.5-40.7S861.4 610 841 599.9L557.9 455.3c-16.3-8.1-34.6-12.2-55-12.2zM191.3 634.5L472.4 496c8.1-4.1 18.4-6.1 30.5-6.1 12.2 0 24.5 2 32.6 6.1l285.1 144.6-281.1 138.5c-8.1 4.1-18.4 6.1-30.5 6.1-12.2 0-24.5-2-32.6-6.1L191.3 634.5zM445.8-64c-10.1 0-20.4 2-30.5 8.1L162.7 76.5c-30.5 14.2-53 46.9-53 73.4V504.2c0 24.5 18.4 42.7 44.8 42.7 10.1 0 20.4-2 30.5-8.1l250.7-132.4c30.5-14.2 53-46.9 53-73.4v-354.3c0-24.4-18.4-42.7-42.9-42.7z m-10.1 48.9c2-2 4.1-2 6.1-2V333.1c0 8.1-10.1 24.5-26.5 32.6L162.7 498c-2 2-4.1 2-6.1 2v-350.3c0-8.1 10.2-24.5 26.5-32.6l252.6-132.2zM580.3-64c-24.5 0-42.8 18.4-42.8 42.8V333.1c0 26.5 22.4 59.1 53 73.4L841 538.8c10.1 4.1 20.4 8.1 30.5 8.1 24.5 0 42.7-18.4 42.7-42.7v-354.3c0-26.5-22.4-59.1-53-73.4L610.8-55.9c-12.2-6.1-20.4-8.1-30.5-8.1z m281 562L610.8 365.7c-16.3-8.1-26.5-24.5-26.5-32.6v-350.3c2 0 4.1 2 6.1 2l250.5 132.4c16.3 8.1 26.5 24.5 26.5 32.6V500.1c-2 0-4-2.1-6.1-2.1z m0 0"  horiz-adv-x="1024" />

    
    <glyph glyph-name="shili" unicode="&#59064;" d="M848 762.2H176c-61.9 0-112-45.9-112-112 0-27.6 75-182.9 79.1-188.4 4.1-5.4 10.6-9 18-9 7.3 0 13.9 3.5 18 9 2.8 3.8 4.5 8.4 4.5 13.5 0 3.6-0.9 7-2.4 10-0.2 0.3-0.4 0.7-0.5 1-28.2 54.1-54.2 122.1-60.6 141.4-17.9 53.7 28.9 89.6 78.4 89.6h112v-244.1c0-86.6 117.6-195 179.2-220.6v-112.5H388.8c-24.7 0-44.8-20.1-44.8-44.8v-44.8c0-24.7 20.1-44.8 44.8-44.8h246.4c24.7 0 44.8 20.1 44.8 44.8v44.8c0 24.7-20.1 44.8-44.8 44.8H534.4V252.6c61.6 25.7 179.2 134 179.2 220.6V717.4h112c49.5 0 89.6-28 78.4-89.6-3.9-21.7-33.5-89.5-62.5-142.4-0.2-0.4-0.5-0.9-0.7-1.3-1.5-3-2.4-6.4-2.4-10.1 0-4.5 1.4-8.7 3.7-12.3 4-6.2 11-10.2 19-10.2s15.1 4.2 19 10.2c3.9 6.1 80 162.3 80 188.4-0.1 62-50.2 112.1-112.1 112.1z m-212.8-678v-22.4c0-6.2-5-11.2-11.2-11.2H400c-6.2 0-11.2 5-11.2 11.2v22.4c0 6.2 5 11.2 11.2 11.2h224c6.2 0 11.2-5 11.2-11.2z m33.6 493.6v-102.5C668.8 394 549 291.8 512 291.8S355.2 394 355.2 475.3V717.4h313.6v-139.6z m0 0"  horiz-adv-x="1024" />

    
    <glyph glyph-name="fenlei-zhuanyefenbao" unicode="&#59065;" d="M271.3 285.1v-209.5h205.8s0 160.7 111.8 209.5c0 0-43.9 10.9-46.5 13.2 0 0-34-37.6-106.4-39 0 0-48.6-3.3-106.7 39-0.1 0-51.6-7.6-58-13.2z m0 0M278.1 436.1s31.8-141 152-142.2c0 0 99.3-11.6 149.1 142.2 0 0 30.7-3.4 30.7 50.4 0 0 9.3 46.7-44.5 33.7 0 0-26.5-12.7-144-13 0 0-74.8-2.8-125.4 11.4 0 0-42.3 12.1-49.1-14.2v-34.9s2.1-32.3 31.2-33.4z m0 0M206.4 592.6s8.7-51.5 201.8-57.7c0 0 144.6-5 200.2 28.9l-14.5 145s-39.5 82.8-144.2 100.5V832h-44.5l-0.2-23.1s-73.7-4.5-131-79.5c0 0-31.3-28-41.2-115.3l-26.4-21.5z m0 0M644.7-63.9V122.6s3.9 10.5 15.8 10.9h147.3s9.7-2 12-12.3v-185.1h11.9s121.1 69.7 102.6 197.4c0 0-14.9 111.9-139.2 154.5l35.4 410.1s3.7 95.2-99.7 101.4c0 0-90.3 2.4-99.3-101.4l71.7 11.9 28.4 27.6 34.2-34.6-33.8-34.2-34.2 34.2 9.8 9.8-74.8-10.8 39.6-408.4s-138-49.3-144.6-189.1c0 0-7.5-94.1 105.9-168.7l11 0.3z m0 0M210.1 75.9V267.8S123 222.1 87.8 187v-70.5s-0.3-16.7 4.9-40.5h117.4z"  horiz-adv-x="1024" />

    
    <glyph glyph-name="fenlei-laowufenbao" unicode="&#59066;" d="M711.4-64c14.9 85.2 35.1 197.1 38.2 195.6 87.7-42.7 160.1-99.3 160.1-156.8v-29.3c0-3.2-0.5-6.3-1.3-9.4h-197zM284 617.1C284 763.4 472 824 472 824c27.2 9.3 53.5 11.9 80.2 0 0 0 187.9-69 187.9-206.9 0-21.9 29-16.7 52.9-86.5H231.1c13.2 69.3 52.9 64.6 52.9 86.5zM312.9-64H115.6c-0.8 3.1-1.3 6.3-1.3 9.4v29.3c0 56.4 73.5 113.3 159.7 157 2.6 1.3 23.4-110.3 38.9-195.7z m0.3 210c23.9 10.9 39.6 21.2 63 29.6 8.7 3.1 50.3 25.8 27 86.7-53.9 55-90.7 108.2-90.7 228.2h400c0-118.8-37.7-172.6-91.2-227.6h0.3c-22.7-69.1 13.6-85.4 19.4-87.3 23.2-7.7 46.3-19.6 69.6-29.6 3.6-1.5-12.9-121.1-25.8-210H339.3c-12.6 89-28.9 208.7-26.1 210z"  horiz-adv-x="1024" />

    
    <glyph glyph-name="fenlei-bangong" unicode="&#59067;" d="M248.1 455.8c0-17.6 14.4-32 32-32h448.8c0.8 0 1.6 0 2.4 0.1 1 0.1 2.1 0.3 3 0.6l0.5 0.1c15.8 2.9 27.2 17.3 26.1 33.6-0.1 1.3-9.2 104.6 46.3 325.8 0 0.2 0 0.5 0.1 0.7 0.2 1 0.3 2.1 0.5 3.2 0.1 1 0.4 2.2 0.4 3.4v0.7c0 0.7-0.2 1.4-0.2 2.1-0.1 1.2-0.1 2.4-0.3 3.6-0.2 1-0.5 2-0.8 2.9-0.2 1-0.6 2.1-0.9 3-0.4 1-0.8 1.9-1.3 2.9-0.5 0.9-0.9 1.9-1.4 2.7-0.6 0.8-1.2 1.6-1.9 2.4-0.7 0.8-1.3 1.6-2 2.4-0.7 0.7-1.5 1.4-2.2 2.1-0.8 0.7-1.6 1.4-2.4 2-0.8 0.6-1.7 1-2.7 1.6-0.8 0.6-1.7 1-2.7 1.5-1 0.5-2.2 0.8-3.4 1.2-0.7 0.2-1.3 0.6-2.1 0.8-0.2 0-0.5 0-0.7 0.1-1 0.2-2.1 0.3-3.2 0.5-1 0.1-2.2 0.2-3.2 0.3H328.1c-0.8 0-1.5-0.2-2.3-0.2-1.2-0.1-2.3-0.1-3.4-0.4-1-0.2-2.1-0.5-3.1-0.8-0.9-0.2-1.9-0.5-2.8-0.8-1-0.5-2.1-0.9-3.1-1.5-0.8-0.5-1.6-0.8-2.4-1.3-0.9-0.6-1.8-1.2-2.7-2-0.8-0.6-1.5-1.2-2.2-1.9-0.8-0.7-1.4-1.5-2.1-2.3-0.7-0.8-1.3-1.5-1.9-2.3-0.6-0.8-1.2-1.9-1.7-2.8-0.5-0.8-1-1.7-1.4-2.7-0.5-1-0.8-2.2-1.2-3.4-0.2-0.7-0.6-1.3-0.8-2.1-51.2-204.4-49.8-312.6-48.4-339.7-0.3-1.2-0.5-2.6-0.5-4.1z m135 292.4h290c16.8 0 30.6-13.8 30.6-30.6S689.9 687 673.1 687h-290c-16.8 0-30.6 13.8-30.6 30.6s13.8 30.6 30.6 30.6z m-20.7-161.1h290c16.8 0 30.6-13.8 30.6-30.6s-13.8-30.6-30.6-30.6h-290c-16.8 0-30.6 13.8-30.6 30.6 0 16.7 13.8 30.6 30.6 30.6z m0 0M896.2 455.8v-64H128.1v64C92.6 455 64 426.4 64 391.1v-382.2c0-35.8 29.3-64.9 65.5-64.9h765.1c36.2 0 65.5 29.1 65.5 64.9V391c0 35.4-28.5 64-63.9 64.8z m-64.1-368c0-17-6.7-33.3-18.8-45.3-12-12-28.3-18.8-45.3-18.8H256.1c-17 0-33.3 6.7-45.3 18.8-12 12-18.8 28.3-18.8 45.3v64.1h640v-64.1z m16.1 192c-11.5 0-22 6-27.7 16-5.7 10-5.7 22.1 0 32 5.7 10 16.2 16 27.7 16 17.6 0 32-14.4 32-32 0-17.7-14.4-32-32-32z m0 0"  horiz-adv-x="1024" />

    
    </font>
</defs>
</svg>
